<?xml version="1.0" encoding="UTF-8" standalone="no"?>
<!-- Created with Inkscape (http://www.inkscape.org/) -->

<svg
   xmlns:dc="http://purl.org/dc/elements/1.1/"
   xmlns:cc="http://creativecommons.org/ns#"
   xmlns:rdf="http://www.w3.org/1999/02/22-rdf-syntax-ns#"
   xmlns:svg="http://www.w3.org/2000/svg"
   xmlns="http://www.w3.org/2000/svg"
   xmlns:sodipodi="http://sodipodi.sourceforge.net/DTD/sodipodi-0.dtd"
   xmlns:inkscape="http://www.inkscape.org/namespaces/inkscape"
   width="210mm"
   height="297mm"
   viewBox="0 0 744.09448819 1052.3622047"
   id="svg14445"
   version="1.1"
   inkscape:version="0.91 r13725"
   sodipodi:docname="hazy.svg">
  <defs
     id="defs14447" />
  <sodipodi:namedview
     id="base"
     pagecolor="#ffffff"
     bordercolor="#666666"
     borderopacity="1.0"
     inkscape:pageopacity="0.0"
     inkscape:pageshadow="2"
     inkscape:zoom="0.35"
     inkscape:cx="375"
     inkscape:cy="520"
     inkscape:document-units="px"
     inkscape:current-layer="layer1"
     showgrid="false"
     inkscape:window-width="1680"
     inkscape:window-height="922"
     inkscape:window-x="0"
     inkscape:window-y="0"
     inkscape:window-maximized="1" />
  <metadata
     id="metadata14450">
    <rdf:RDF>
      <cc:Work
         rdf:about="">
        <dc:format>image/svg+xml</dc:format>
        <dc:type
           rdf:resource="http://purl.org/dc/dcmitype/StillImage" />
        <dc:title></dc:title>
      </cc:Work>
    </rdf:RDF>
  </metadata>
  <g
     inkscape:label="Layer 1"
     inkscape:groupmode="layer"
     id="layer1">
    <path
       style="fill:none;fill-rule:evenodd;stroke:#000000;stroke-width:1px;stroke-linecap:butt;stroke-linejoin:miter;stroke-opacity:1"
       d="m 94.285714,672.3622 c 0,-1.49823 0,-24.35537 0,-22.85714 0,11.42857 0,22.85714 0,34.28572 0,18.09523 -2.722283,36.39642 0,54.28571 3.996406,26.2621 13.348726,51.42459 19.999996,77.14286 7.63444,29.51983 16.7941,58.68925 22.85715,88.57143 24.22449,119.39212 10.59041,80.61456 25.71428,180.00002 3.06294,20.1278 7.43573,40.0358 11.42857,60 1.72201,8.61 3.5847,17.1959 5.71429,25.7143 0.73044,2.9217 0.72755,10.701 2.85714,8.5714 2.69374,-2.6937 -0.2237,-7.6256 0,-11.4286 0.72919,-12.3961 1.90476,-24.7619 2.85715,-37.1428 0,-19.0477 -0.68596,-38.1076 0,-57.1429 3.12411,-86.69408 -6.72286,-175.16987 11.42857,-260 20.83584,-97.37568 195.18769,-584.53172 240,-705.71428 132.23991,-357.60652 56.55749,-119.625704 120,-337.14286 3.62706,-12.43563 7.07174,-24.94374 11.42857,-37.14286 0.453,-1.2684 2.593,-4.17785 2.85714,-2.85714 1.12067,5.60332 0.45569,11.44677 0,17.14286 -1.45098,18.13726 -3.66752,36.20599 -5.71428,54.28571 -3.66763,32.39733 -7.57433,64.7672 -11.42858,97.14286 -5.66957,47.624393 -12.00044,95.1729494 -17.14285,142.857143 -7.52906,69.814877 -17.47071,179.952937 -22.85715,254.285717 -2.20694,30.4558 -4.3879,60.92173 -5.71428,91.42857 -3.05058,70.16322 6.93732,19.79956 -5.71429,51.42857 -1.71767,4.29419 4.69268,3.97979 -5.71428,5.71429 -24.68593,4.11432 -17.34343,-12.64925 -25.71429,-42.85715 C 420.4897,217.11075 426.14455,249.86635 402.85714,103.79078 397.8528,72.399896 394.90692,40.654578 388.57143,9.5050619 c -5.11101,-25.1291449 -12.15281,-49.8722349 -20,-74.2857139 -0.82431,-2.564518 -3.10098,-6.367614 -5.71429,-5.714286 -3.33133,0.832833 -5.52894,5.142576 -5.71428,8.571428 -1.74777,32.33375 1.3296,64.7892143 0,97.142858 C 354.64798,95.928123 346.68451,165.37325 340,226.64792 c -2.80581,25.71994 -5.36234,51.47012 -8.57143,77.14286 -1.55373,12.42988 -3.65492,24.78668 -5.71428,37.14285 -0.79836,4.79014 -2.05879,9.49558 -2.85715,14.28572 -0.15657,0.93942 0.57143,3.61905 0,2.85714 -24.52913,-32.7055 -12.51489,-63.61642 -14.28571,-111.42857 -8.83015,-238.4138819 1.75016,-53.33632 -5.71429,-191.428572 -1.99746,-36.953109 1.82095,-39.733349 -8.57143,-65.714286 -0.3537,-0.884264 0,1.9047618 0,2.8571427 0,22.8571433 0,45.7142853 0,68.5714283 0,39.047619 -1.73373,78.133747 0,117.142857 4.61603,103.8606 8.98207,138.37911 28.57143,231.42857 3.79802,18.04058 18.60119,82.93366 28.57143,108.57143 2.01277,5.17569 4.30528,10.73059 8.57143,14.28571 2.19492,1.8291 6.74233,2.19492 8.57143,0 3.85608,-4.62729 4.58724,-11.22585 5.71428,-17.14285 C 382.01392,474.64625 380,468.38934 380,426.64792 c 0,-85.33333 0,-28.95238 0,-114.28572 0,-2 0,-63.71428 0,-65.71428 0,-2.85714 -0.90351,-5.86091 0,-8.57143 0.30117,-0.90351 2.69163,-0.93789 2.85714,0 2.83308,16.05408 4.09217,32.3502 5.71429,48.57143 4.09251,40.92507 6.75849,81.99395 11.42857,122.85714 6.76024,59.1521 15.60008,118.04966 22.85714,177.14286 6.07658,49.48066 10.62534,99.14691 17.14286,148.57143 4.91305,37.2573 11.98867,74.20386 17.14286,111.42857 3.4187,24.69064 5.38159,49.56446 8.57143,74.28571 0.62145,4.81628 2.17037,19.09312 2.85714,14.28572 1.61624,-11.31371 0,-22.85715 0,-34.28572 0,-60 -3.30987,-120.09136 0,-180 16.82092,-304.45862 -0.3588,-253.31794 62.85714,-445.71428 10.05962,-30.61622 20.11309,-61.25394 31.42857,-91.42857 8.69449,-23.1853 17.78611,-46.28177 28.57143,-68.57143 3.56842,-7.37473 7.8188,-14.97018 14.28572,-20.000002 3.00705,-2.338822 10.01375,-3.537054 11.42857,0 7.2142,18.035512 9.25362,37.840162 11.42857,57.142852 5.24829,46.57863 17.5667,233.21777 20,282.85715 2.51971,51.40211 2.46358,102.92465 5.71428,154.28571 1.51472,23.93246 6.40035,47.54672 8.57143,71.42857 1.64054,18.04587 2.03435,36.18412 2.85715,54.28572 0.12973,2.85419 0,11.42857 0,8.57143 0,-30.47619 1.27632,-60.97912 0,-91.42858 -7.84921,-187.2596 -32.34412,-504.84187 -20,-705.714281 4.42807,-72.056809 17.85112,-143.381239 31.42857,-214.285719 1.44107,-7.5256 40.00929,-108.57607 45.71428,-111.42857 12.19643,-6.09821 6.61254,26.50542 8.57143,40 6.61822,45.5922 11.49181,91.42071 17.14286,137.14286 17.75819,143.67989 16.68398,111.80089 20,274.285715 0.83559,40.943855 1.41131,81.929085 0,122.857145 -1.12653,32.6692 -1.40774,59.36849 -40,71.42857 C 671.08818,264.61143 624.4644,223.0096 580,195.21935 556.24726,180.37388 533.91372,163.35117 511.42857,146.64792 500.56273,138.57615 489.82641,130.24286 480,120.93363 c -8.32536,-7.88718 -15.14281,-17.22851 -22.85714,-25.714282 -1.81201,-1.993207 -3.80953,-7.619048 -5.71429,-5.714286 -2.69374,2.69374 -0.81408,7.707047 0,11.428568 5.87397,26.85242 16.62834,52.7202 20,80 7.14139,57.78036 8.34548,116.1474 11.42857,174.28572 3.58403,67.58442 6.47926,135.2101 8.57143,202.85714 0.34409,11.12564 1.04966,109.03743 -2.85714,128.57143 -0.59064,2.95321 -5.75149,3.91462 -8.57143,2.85714 -5.70994,-2.14122 -11.31088,-6.10517 -14.28571,-11.42857 -15.38073,-27.5234 -27.51973,-56.76006 -40,-85.71429 -128.99285,-299.2634 60.05459,123.31532 -62.85715,-151.42857 -5.56848,-12.4472 -11.33668,-24.80473 -17.14285,-37.14285 -1.81355,-3.85379 -3.35172,-7.88473 -5.71429,-11.42858 -0.52829,-0.79242 0,1.90477 0,2.85715 0,17.14285 -2.81827,34.51896 0,51.42857 6.75978,40.5587 23.23249,79.22993 28.57143,120 3.55989,27.18463 2.85714,170.25488 2.85714,208.57143 0,15.23809 0.7248,30.49344 0,45.71428 -0.23098,4.85072 1.95026,13.59895 -2.85714,14.28572 -6.79869,0.97124 -13.57201,-5.56218 -17.14286,-11.42857 -10.20855,-16.7712 -17.2154,-35.47991 -22.85714,-54.28572 -45.1767,-150.58901 -43.70771,-159.1016 -65.71429,-297.14286 -3.94418,-24.74081 -7.2122,-49.58983 -11.42857,-74.28571 -2.45185,-14.36083 -4.86381,-28.76819 -8.57143,-42.85714 -1.08393,-4.11894 -3.35172,-14.97242 -5.71428,-11.42857 -3.698,5.547 0,13.33333 0,20 0,117.60209 -3.74808,17.53788 22.85714,188.57142 19.08577,122.69422 15.98778,115.80443 22.85714,225.71429 1.84548,29.52758 4.40069,59.01542 5.71429,88.57143 0.59201,13.32018 0,26.66667 0,40 0,2.85714 2.5555,7.29367 0,8.57143 -3.51221,1.7561 -9.62759,0.63226 -11.42857,-2.85715 -14.11353,-27.34496 -23.85328,-56.76427 -34.28572,-85.71428 -27.67141,-76.78818 -56.19078,-153.35647 -80,-231.42857 -47.40476,-155.44354 -37.82306,-163.45206 -68.571426,-311.42857 -5.592208,-26.91251 -14.735883,-53.02141 -20,-80 -2.378085,-12.18769 -2.168342,-24.74445 -2.857143,-37.14286 -0.264143,-4.75457 0,-19.04762 0,-14.28572 0,22.19328 -0.447405,51.18822 2.857143,71.42858 9.8067,60.06603 31.303826,129.15435 42.857146,188.57142 6.99324,35.96524 12.04072,72.28959 17.14285,108.57143 0.9231,6.56422 13.06746,112.125 14.28572,128.57143 0.56283,7.59823 -0.84138,15.2847 0,22.85714 0.14874,1.33864 2.66667,4.19048 2.85714,2.85715 1.0775,-7.54247 0.26257,-15.24262 0,-22.85715 -0.69003,-20.01076 -0.59639,-40.10537 -2.85714,-60 -7.26943,-63.97093 -21.01592,-127.21759 -25.71429,-191.42857 -3.89203,-53.19113 0,-106.66666 0,-160 0,-45.71428 -2.37157,-91.49013 0,-137.14285 0.53587,-10.315434 15.88222,-114.906849 20,-137.142861 1.43005,-7.722239 1.55192,-16.197359 5.71429,-22.857143 1.51428,-2.422852 6.55112,-2.020305 8.57143,0 3.62656,3.626559 4.00734,9.449373 5.71428,14.285714 4.00941,11.35999 6.57687,23.259123 11.42857,34.2857147 5.66321,12.8709186 13.7114,24.5656583 20,37.1428573 5.14639,10.292766 9.29351,21.060148 14.28572,31.428571 19.5101,40.520987 30.51796,55.130237 42.85714,99.999997 10.07482,36.63572 15.05215,85.22444 17.14286,122.85715 0.7396,13.3128 0,26.66666 0,40 0,12.38095 3.45193,25.25285 0,37.14285 -5.34376,18.40628 -16.47769,34.63476 -25.71429,51.42857 -32.7833,59.60601 -49.79511,83.80135 -94.28571,140 -81.283385,102.67375 -24.18016,19.75898 -80.000001,100 -5.882864,8.45662 -11.155189,17.33155 -17.142858,25.71429 C 47.884057,683.03881 42.989718,687.04715 40,692.3622 34.358239,702.392 30.056091,713.13362 25.714286,723.79078 17.265806,744.52795 5.8027122,774.86564 0,798.07649 c -2.3556074,9.42243 -4.4306564,18.94421 -5.7142857,28.57143 -0.6293511,4.72013 0,9.52381 0,14.28571 0,1.90477 -1.3468701,4.36742 0,5.71429 1.34687,1.34687 3.8095238,0 5.7142857,0 1.9047619,0 3.8663952,0.46197 5.7142857,0 C 11.649067,845.16422 16.361507,839.26212 20,835.21935 44.271272,808.25127 40.182248,810.66026 65.714286,772.3622 c 13.333333,-20 28.404403,-38.94483 40.000004,-60 24.65583,-44.76979 48.71714,-90.04665 68.57142,-137.14285 42.08291,-99.82457 93.36169,-280.89231 114.28572,-377.14286 42.69419,-196.3932751 58.77361,-295.800981 68.57143,-480 1.61878,-30.43317 0.58597,-60.95801 0,-91.42857 -0.86025,-44.73284 5.64658,-48.66815 -14.28572,-77.14286 -3.22604,-4.60863 -9.73915,-12.80212 -17.14285,-8.57143 -19.06694,10.89539 -13.64792,27.52398 -14.28572,48.57143 -0.57693,19.03888 1.39972,38.14674 0,57.14286 -5.27174,71.54505 -11.24248,143.08325 -20,214.28571 -13.15351,106.943739 -31.37655,213.208587 -45.71428,320 -15.90864,118.49191 -76.73651,617.19201 -82.85715,697.14286 -5.01608,65.52256 0,131.42861 0,197.14281 0,25.7143 0,51.4286 0,77.1429 0,14.2857 -1.66916,28.6693 0,42.8571 0.31474,2.6753 3.5593,4.0981 5.71429,5.7143 1.70367,1.2778 4.65771,4.7062 5.71428,2.8572 8.82277,-15.4399 8.26944,-72.6885 8.57143,-77.1429 2.58405,-38.1147 2.00061,-76.6528 8.57143,-114.2857 7.61255,-43.59912 59.20621,-269.81094 80,-354.28571 6.34941,-25.79446 14.98338,-51.05642 20,-77.14286 4.52863,-23.54884 5.92324,-47.5949 8.57143,-71.42857 0.21035,-1.89311 0.31314,-7.59313 0,-5.71428 -1.26231,7.57386 -1.97702,15.22941 -2.85714,22.85714 -1.97708,17.13467 -4.6038,34.216 -5.71429,51.42857 -0.79711,12.35527 0.49484,24.7718 0,37.14286 -0.45836,11.45902 -2.28445,22.83183 -2.85714,34.28571 -0.38048,7.60954 0,15.2381 0,22.85714 0,0.95239 0.0862,3.80562 0,2.85715 -6.31914,-69.51054 -8.23581,-107.04814 8.57143,-194.28572 19.51894,-101.3126 41.38862,-125.49068 68.57143,-202.85714 6.29029,-17.90315 10.47991,-36.51788 17.14285,-54.28571 1.94989,-5.19971 3.95082,-11.20531 8.57143,-14.28572 2.37729,-1.58486 0,5.71429 0,8.57143 0,29.52381 0,59.04762 0,88.57143 0,300.54377 14.07448,209.83884 -25.71428,448.57143 -4.94376,29.66256 -12.29735,58.89266 -17.14286,88.57143 -2.77926,17.02296 -3.4834,34.32509 -5.71429,51.42857 -0.6281,4.81542 -2.05878,9.49558 -2.85714,14.28571 -0.15657,0.93942 0,3.80953 0,2.85714 0,-25.11528 -0.41871,-89.51973 2.85714,-102.85714 7.84629,-31.94561 25.51772,-60.65614 37.14286,-91.42857 4.57787,-12.1179 7.50094,-24.79886 11.42857,-37.14286 2.73947,-8.60976 5.71429,-17.14285 8.57143,-25.71428 0.95238,-2.85715 2.1267,-11.4932 2.85714,-8.57143 4.56242,18.24968 -10.57192,64.3612 -11.42857,71.42857 -1.71902,14.18191 0,28.57143 0,42.85714 0,9.52381 0,19.04762 0,28.57143 0,4.76191 -1.76853,9.8644 0,14.28572 0.70741,1.76852 4.65772,1.58485 5.71429,0 3.34117,-5.01176 4.05953,-11.35123 5.71428,-17.14286 2.15753,-7.55136 4.34946,-15.12311 5.71429,-22.85714 2.50007,-14.16708 2.85714,-26.20547 2.85714,-40"
       id="path14453"
       inkscape:connector-curvature="0" />
    <path
       style="fill:none;fill-rule:evenodd;stroke:#000000;stroke-width:1px;stroke-linecap:butt;stroke-linejoin:miter;stroke-opacity:1"
       d="m 114.28571,189.50506 c 7.64262,91.71134 14.43513,191.98091 28.57143,282.85714 5.828,37.46567 13.92408,74.57967 22.85715,111.42858 12.45125,51.36143 23.71539,78.89603 40,125.71428 2.59459,7.45947 5.6203,34.26024 25.71428,20 87.15504,-61.85196 125.39389,-156.96177 177.14286,-248.57143 119.63001,-211.77744 88.86515,-148.96662 160,-360 24.17442,-71.717452 31.5615,-84.252755 42.85714,-154.285711 1.06155,-6.581607 2.98143,-14.037152 0,-20 -1.7561,-3.512207 -8.23997,-5.148946 -11.42857,-2.857143 -28.51966,20.498509 -58.05941,41.145697 -80,68.571429 -17.37199,21.714988 -205.74719,303.748745 -234.28571,354.285715 -16.35718,28.96582 -26.05993,61.22509 -40,91.42857 -8.92422,19.3358 -19.60349,37.8273 -28.57143,57.14286 -3.42665,7.38046 -4.05775,29.62766 -8.57143,22.85714 -5.83511,-8.75266 -0.46938,-21.449 2.85714,-31.42857 15.82787,-47.48362 37.27607,-92.92679 54.28572,-140 44.21069,-122.35054 74.99502,-204.26156 100,-325.714287 C 367.94158,30.115351 378.66815,-64.609465 380,-81.92351 c 0.51131,-6.647029 0.8269,-13.384814 0,-20 -0.16706,-1.33647 -2.51437,-4.15967 -2.85714,-2.85714 -14.46146,54.953534 -30.49592,109.6902053 -40,165.714283 -9.95327,58.671887 -18.32526,210.990507 -20,277.142857 -0.86772,34.27473 0,68.57143 0,102.85714 0,11.42857 0,22.85715 0,34.28572 0,0.95238 0,3.80952 0,2.85714 0,-11.42857 0,-22.85714 0,-34.28571 0,-52.38096 3.4516,-104.87575 0,-157.14286 C 310.27992,182.72338 301.88943,150.5453 274.28571,63.790776 269.07992,47.429715 263.01034,31.354935 257.14286,15.219348 255.39015,10.399402 256.29411,2.5554796 251.42857,0.9336333 c -3.72526,-1.24175284 -2.80408,7.5021627 -2.85714,11.4285717 -0.90082,66.66058 0,133.333335 0,199.999995 0,66.66667 0,133.33334 0,200 0,27.61905 -1.42667,55.27497 0,82.85715 1.43428,27.72937 4.34934,55.41358 8.57143,82.85714 1.51192,9.82753 -0.86147,25.42713 8.57143,28.57143 8.13157,2.71052 1.12612,-17.21716 0,-25.71429 -9.361,-70.63296 -17.36505,-141.57972 -31.42858,-211.42857 -26.28285,-130.53819 -57.03593,-229.69704 -100,-351.42857 -6.82777,-19.3453647 -13.95745,-38.658885 -22.85714,-57.142857 -3.55412,-7.381628 -9.9436,-13.052612 -14.285713,-20 -0.504761,-0.807617 0,-3.809524 0,-2.857143 0,84.761905 0,169.52381 0,254.28571 0,28.57143 -0.951852,57.15872 0,85.71429 0.953965,28.61896 2.933843,57.21475 5.714283,85.71429 1.03392,10.59762 3.13178,21.09855 5.71429,31.42857 0.32666,1.30665 2.65735,4.18911 2.85714,2.85714 2.98024,-19.86822 4.01778,-39.98126 5.71429,-60 6.24351,-73.67348 5.61777,-103.26263 17.14285,-168.57143 2.20818,-12.513 5.29748,-24.86554 8.57143,-37.14286 0.54872,-2.05768 2.70542,-7.83846 2.85715,-5.71428 1.08567,15.19937 0,30.47619 0,45.71428 0,67.61905 0,135.2381 0,202.85715 0,244.39394 -3.02411,99.23954 5.71428,288.57143 1.14249,24.75386 0.61365,49.60726 2.85714,74.28571 0.62773,6.90496 1.45757,25.47293 5.71429,20 16.21438,-20.84705 25.28509,-46.59926 34.28571,-71.42857 49.8587,-137.54122 51.76514,-180.43279 88.57143,-322.85714 7.69209,-29.76503 18.12068,-58.78113 25.71429,-88.57143 4.79801,-18.82295 7.06071,-38.21547 11.42857,-57.14286 1.35442,-5.86913 5.14321,-23.13911 5.71429,-17.14286 2.43794,25.59846 0,51.42857 0,77.14286 0,39.04762 0,78.09524 0,117.14286 0,32.38095 0,64.7619 0,97.14285 0,23.80953 0,47.61905 0,71.42858 0,13.33333 -4.95188,27.62031 0,40 2.1515,5.37876 14.00225,7.72507 17.14285,2.85714 18.03398,-27.95267 28.05848,-60.38061 40,-91.42857 11.89249,-30.92046 20.76438,-62.92044 31.42857,-94.28572 5.52685,-16.25541 11.54583,-32.34004 17.14286,-48.57143 3.92714,-11.38869 6.6,-23.24897 11.42857,-34.28571 1.90866,-4.36265 3.80953,-11.42857 8.57143,-11.42857 6.09821,0 12.56501,5.57815 14.28572,11.42857 12.91302,43.90427 19.34301,89.46198 28.57142,134.28571 8.08424,39.26627 20.02437,110.67132 28.57143,145.71429 2.64143,10.82986 6.44334,21.45809 11.42857,31.42857 1.80702,3.61403 6.63658,12.11866 8.57143,8.57143 12.11754,-22.21549 18.81597,-47.08158 25.71429,-71.42857 27.36006,-96.56491 15.91609,-83.16575 37.14286,-165.71429 3.00014,-11.66721 7.61904,-22.85714 11.42857,-34.28571 0.95238,-2.85714 1.05012,-10.98078 2.85714,-8.57143 4.16006,5.54675 5.02438,13.10097 5.71429,20 3.13299,31.32998 4.66532,62.81695 5.71428,94.28571 0.85667,25.70002 0,51.42858 0,77.14286 0,20 0,40 0,60 0,11.42857 0,22.85714 0,34.28572 0,2.85714 0,5.71428 0,8.57142 0,1.90477 0,7.61905 0,5.71429 0,-36.19048 0,-72.38095 0,-108.57143 0,-42.85714 0,-85.71428 0,-128.57143 0,-13.33333 0,26.66667 0,40 0,104.76191 0,209.52381 0,314.28572 0,90.47619 0,180.95238 0,271.42855 0,30.4762 -0.41744,60.9553 0,91.4286 0.53501,39.0556 2.172,78.0896 2.85714,117.1428 0.2673,15.2358 -0.89481,30.5025 0,45.7143 0.0791,1.3446 3.30362,4.1279 2.85715,2.8572 C 539.27206,1045.2354 592.96533,1183.1697 480,943.79078 428.62576,834.92632 457.50748,872.4872 382.85714,778.07649 c -4.90664,-6.20546 -33.2654,-47.27894 -54.28571,-54.28571 -16.57523,-5.52508 -16.085,7.69445 -17.14286,22.85714 -2.32089,33.26607 -2.25093,66.65857 -2.85714,100 -0.6579,36.18449 0,72.38095 0,108.57143 0,6.66666 0,13.33333 0,20 0,0.95238 0,3.80952 0,2.85714 0,-14.28571 0.873,-28.59813 0,-42.85714 -4.27717,-69.86047 -12.35604,-127.49792 -20,-197.14286 -4.91112,-44.74578 -8.61513,-89.62983 -14.28572,-134.28571 -4.61745,-36.36249 -4.68576,-44.17151 -22.85714,-71.42858 -2.24133,-3.36199 -5.33894,-6.14706 -8.57143,-8.57142 -0.7619,-0.57143 -2.71232,-0.94131 -2.85714,0 -1.88817,12.27313 -2.28021,24.73873 -2.85714,37.14285 -6.31813,55.12745 -0.4574,110.52013 -2.85715,165.71429 -3.60694,82.95966 -2.13068,24.93913 -11.42857,71.42857 -0.56033,2.80166 1.27776,6.01592 0,8.57143 -0.60234,1.20468 -2.57493,-1.54017 -2.85714,-2.85714 -5.4795,-25.57099 -9.49261,-51.43437 -14.28571,-77.14286 C 183.51406,607.574 190.40966,617.85401 131.42857,480.93363 126.30375,469.03672 116.55495,459.70623 108.57143,449.50506 99.402816,437.78961 90.519391,425.73874 80,415.21935 74.206893,409.42624 67.43863,397.50042 60,400.93363 49.165049,405.93438 44.691375,420.57072 42.857143,432.3622 37.877811,464.37219 40.399907,497.11258 40,529.50506 c -0.846496,68.56621 0,137.14286 0,205.71429 0,23.80952 0,47.61905 0,71.42857 0,2.85714 0,11.42857 0,8.57143 0,-6.66667 -0.585959,-13.35914 0,-20 6.835059,-77.46401 10.896696,-92.78897 25.714286,-174.28572 5.54675,-30.50712 11.596106,-60.92144 17.142857,-91.42857 2.072605,-11.39933 4.434802,-22.77036 5.714286,-34.28571 0.631037,-5.67934 0.939422,-11.50632 0,-17.14286 -0.156571,-0.93942 -2.644929,-0.92844 -2.857143,0 -24.695032,108.04076 -27.687297,144.52118 -34.285715,268.57143 -1.770546,33.28628 0,66.66667 0,100 0,22.85714 -2.332088,45.83357 0,68.57143 1.094451,10.67089 6.233833,53.20093 28.571429,57.14285 54.74474,9.66084 72.14733,-73.09737 85.71429,-102.85714 C 179.9583,838.26012 187.75137,804.44194 200,772.3622 c 7.76159,-20.32798 18.07407,-39.62608 25.71429,-60 6.66293,-17.76783 11.1421,-36.28344 17.14285,-54.28571 2.57319,-7.71957 3.68914,-16.34743 8.57143,-22.85714 1.71429,-2.28572 6.63349,-2.09944 8.57143,0 10.21386,11.06501 18.55373,23.89582 25.71429,37.14285 11.9562,22.11897 20.18402,46.08233 31.42857,68.57143 22.66614,45.3323 18.56155,31.0237 42.85714,68.57143 4.17127,6.44651 6.96563,13.75188 11.42857,20 0.55356,0.77499 2.37727,0.82265 2.85714,0 6.43823,-11.03696 13.85057,-21.93962 17.14286,-34.28571 12.03177,-45.11913 19.00518,-91.43744 28.57143,-137.14286 7.57662,-36.19938 15.48594,-72.32966 22.85714,-108.57143 4.05785,-19.9511 7.20388,-40.08356 11.42857,-60 2.44447,-11.52389 5.10701,-23.02635 8.57143,-34.28571 0.3961,-1.28731 2.21219,-4.03956 2.85715,-2.85715 5.92864,10.86919 10.31094,22.56014 14.28571,34.28572 15.08444,44.49909 29.54376,89.22505 42.85714,134.28571 77.43416,262.08483 -8.59261,-15.03526 54.28572,214.28572 7.40687,27.0133 17.73216,53.15105 25.71428,80 2.50219,8.41644 3.19123,17.30407 5.71429,25.71428 0.38702,1.29007 2.80331,4.20294 2.85714,2.85715 0.98969,-24.74212 0,-49.52381 0,-74.28572 0,-77.14286 0,-154.28571 0,-231.42857 0,-17.14286 0,-34.28571 0,-51.42857 0,-7.61905 0,-15.2381 0,-22.85714 0,-2.85715 -0.90351,-5.86091 0,-8.57143 0.30117,-0.90351 2.54668,-0.90036 2.85714,0 9.42717,27.33879 16.36188,55.49268 25.71429,82.85714 37.617,110.06455 50.74376,137.75295 85.71429,237.14286 6.99719,19.88677 12.74247,40.20675 20,60 3.22906,8.80653 7.94497,17.0053 11.42857,25.71428 0.3537,0.88427 0,3.80953 0,2.85715 0,-86.38013 3.87799,-23.01306 -28.57143,-154.28572 C 674.46613,590.62453 709.39933,740.59619 680,560.93363 c -2.98623,-18.24918 -8.17787,-36.08178 -11.42857,-54.28571 -1.51605,-8.48988 -1.99901,-17.13291 -2.85714,-25.71429 -0.0948,-0.94765 0,-3.80952 0,-2.85714 0,94.48612 4.41073,188.6176 11.42857,282.85714 3.12478,41.96138 7.8146,83.79221 11.42857,125.71429 0.32284,3.745 6.33255,76.06121 2.85714,80 -9.63892,10.92411 -28.29888,8.02206 -42.85714,8.57143 -36.17726,1.36518 -72.6907,1.96265 -108.57143,-2.85715 -28.39564,-3.81434 -55.09699,-15.76944 -82.85714,-22.85714 -62.38527,-15.92815 -35.5048,-8.95964 -91.42857,-14.28571 -6.70402,-0.63848 -16.26446,-8.46046 -20,-2.85715 -6.88801,10.33201 -2.53048,24.72963 -2.85715,37.14286 -0.62635,23.80129 -1.92418,47.69694 0,71.42854 1.14837,14.1633 12.82601,49.5341 20,62.8572 2.278,4.2305 17.41122,20.1851 22.85715,2.8571 9.57761,-30.4742 11.825,-62.7876 17.14285,-94.2857 7.06384,-41.83964 14.43259,-83.64936 20,-125.71428 15.13043,-114.31879 -4.09762,-24.40664 14.28572,-120 1.48312,-7.71222 4.3094,-15.13029 5.71428,-22.85714 0.5111,-2.81106 -0.90351,-5.86091 0,-8.57143 0.30117,-0.90351 2.75197,-0.94656 2.85715,0 1.89603,17.06428 2.51382,34.26271 2.85714,51.42857 1.58546,79.27307 5.55302,116.94026 -25.71429,194.28571 -5.30632,13.12618 -19.68959,20.40287 -28.57143,31.42857 -18.76052,23.2889 -29.57708,54.5818 -54.28571,71.4286 -20.06166,13.6784 -47.35744,17.4716 -71.42857,14.2857 -100.69115,-13.3268 -153.99346,-58.0811 -234.285716,-114.28572 -30.1169298,-21.08185 -58.81514,-44.12639 -88.571428,-65.71429 -74.562546,-54.0944 -33.00824,-26.04638 -97.142856,-60 -3.0348,-1.60666 -5.31379,-4.6284 -8.57143,-5.71429 -0.90351,-0.30116 0,1.90477 0,2.85715 0,15.23809 -3.26716,30.83056 0,45.71428 5.42566,24.7169 17.01982,47.6637 25.71429,71.42857 2.85277,7.7976 24.60693,70.3212 34.28571,80 22.857143,22.8571 61.183467,24.5308 85.714286,0 C 87.498842,950.57765 149.94029,836.74744 222.85714,715.21935 c 43.27805,-72.13008 87.60051,-143.67776 128.57143,-217.14286 14.32013,-25.67748 24.36095,-53.52318 37.14286,-80 13.88755,-28.76707 27.66731,-57.61309 42.85714,-85.71429 3.89577,-7.20716 6.17537,-21.15862 14.28572,-20 7.7746,1.11066 4.21025,15.14898 5.71428,22.85715 41.15724,210.93084 -9.5411,-35.7286 37.14286,217.14285 3.90085,21.12964 10.48979,41.70841 14.28571,62.85715 2.88,16.04572 3.03423,32.4911 5.71429,48.57143 1.13985,6.8391 0.8116,15.09732 5.71428,20 4.09635,4.09634 14.08779,7.7792 17.14286,2.85714 16.22821,-26.14544 23.07228,-57.05774 34.28572,-85.71429 48.30164,-123.43753 34.33433,-85.86014 71.42857,-197.14285 8.57143,-25.71429 17.37074,-51.35373 25.71428,-77.14286 2.13426,-6.59678 1.27561,-14.67359 5.71429,-20 1.92804,-2.31365 7.90637,-0.0802 8.57143,2.85714 11.09872,49.01934 18.50552,98.831 25.71428,148.57143 42.27995,291.73166 21.08619,172.74149 48.57143,422.85714 13.69535,124.62767 10.61324,39.21253 14.28572,145.71427 0.22974,6.6627 3.30759,25.7883 0,20 C 751.32007,1021.458 744.06527,992.76376 731.42857,966.64792 715.47013,933.66714 696.65676,902.13872 680,869.50506 649.9872,810.70448 621.59708,751.08305 591.42857,692.3622 568.25958,647.26542 546.65297,601.20584 520,558.07649 495.79659,518.91097 426.7566,416.5261 377.14286,380.93363 341.90827,355.65664 287.9423,333.54866 242.85714,332.3622 c -16.43495,-0.43249 -38.37435,-4.32486 -48.57143,8.57143 -58.00436,73.35846 -49.88867,128.27418 -51.42857,211.42857 -0.73024,39.43312 -7.49059,109.21993 34.28572,134.28572 9.0203,5.41218 20.94268,3.69601 31.42857,2.85714 13.59259,-1.08741 31.78986,2.31593 40,-8.57143 74.98145,-99.43192 91.2098,-135.2833 102.85714,-234.28571 0.81011,-6.88595 -5.09356,13.0944 -5.71428,20 -7.0103,77.98958 -14.85202,156.01521 -17.14286,234.28571 -5.9648,203.79732 -6.94734,430.97137 28.57143,634.28567 11.41414,65.3362 26.40724,131.2465 54.28571,191.4286 32.75957,70.7191 61.81714,152.5163 125.71429,197.1429 24.5177,17.1235 43.40463,-43.573 54.28571,-71.4286 37.27352,-95.4202 60.83575,-195.67 88.57143,-294.2857 13.80724,-49.0924 19.09483,-106.9787 22.85714,-157.1429 0.71229,-9.4971 0,-19.0476 0,-28.5714 0,-3.8095 0,-7.619 0,-11.4286 0,-0.9523 0.67344,-2.1837 0,-2.8571 -0.50677,-0.5068 -14.14355,0.2132 -14.28571,0 -17.50411,-26.2562 -14.54692,-57.8359 -20,-88.5714 -6.26498,-35.3118 -13.66427,-70.41523 -20,-105.71432 -6.99813,-38.98958 -11.5851,-78.43433 -20,-117.14286 -5.89147,-27.10077 -15.91309,-53.14965 -22.85714,-80 -15.87695,-61.39087 -9.93939,-75.48523 -37.14286,-120 -2.50633,-4.10126 -12.77907,-21.00781 -22.85714,-20 -43.92422,4.39242 -36.62077,39.43642 -51.42858,88.57143 -25.26733,83.8416 -32.58776,132.76904 -48.57142,214.28571 -5.76158,29.38405 -14.67096,53.6757 -11.42858,82.85714 0.10518,0.9466 2.20732,0.6962 2.85715,0 12.89869,-13.82003 27.12364,-26.82639 37.14285,-42.85714 13.99745,-22.39592 24.09645,-47.06293 34.28572,-71.42857 26.12033,-62.46166 33.72292,-76.14686 37.14286,-134.28571 0.95073,-16.16254 -0.73518,-32.39766 0,-48.57143 0.2205,-4.8512 6.54425,-11.12534 2.85714,-14.28572 -26.48698,-22.70312 -74.26075,42.82645 -74.28572,42.85715 -85.88067,105.56166 -82.58021,117.93827 -137.14285,231.42857 -6.45917,13.43508 -14.2665,26.23955 -20,39.99995 -3.82429,9.1783 -6.15986,18.9252 -8.57143,28.5715 -0.46197,1.8479 -1.65822,6.6515 0,5.7143 99.25196,-56.09897 98.31282,-74.92907 182.85714,-194.28575 27.95072,-39.45984 54.86781,-79.93694 77.14286,-122.85715 34.82057,-67.09329 52.44484,-143.55773 65.71428,-217.14285 3.30229,-18.31269 14.19862,-73.12826 -5.71428,-94.28572 -16.14664,-17.1558 -58.19153,-16.51114 -77.14286,-17.14285 -14.27778,-0.47593 -29.96456,-6.15328 -42.85714,0 -61.80999,29.50022 -90.55326,60.6051 -120,117.14285 -13.40186,25.73157 -26.31538,52.10382 -34.28572,80 -2.867,10.03453 -7.71692,71.4022 -5.71428,91.42857 0.87369,8.73695 0.0931,18.96891 5.71428,25.71429 9.30944,11.17132 45.62556,11.5173 54.28572,2.85714 19.05952,-19.05952 31.90999,-43.94034 42.85714,-68.57143 27.67935,-62.27853 35.16567,-139.84649 40,-205.71428 4.14487,-56.47385 18.52858,-257.60973 -2.85714,-328.57143 C 480.10566,89.985535 456.11589,69.026368 437.14286,46.647919 408.41667,12.765755 369.10879,-29.514531 322.85714,-41.92351 302.59954,-47.358476 280.97401,-44.780652 260,-44.780652 c -8.62418,0 -19.61607,-3.241071 -25.71429,2.857142 -16.63261,16.632619 -27.37432,38.6022516 -37.14285,60 C 184.3939,46.002771 167.78971,110.24933 162.85714,143.79078 159.49319,166.66567 160,187.0096 160,209.50506 c 0,3.80953 -1.41482,7.89152 0,11.42857 1.82433,4.56082 16.63851,2.85715 17.14286,2.85715 3.80952,0 8.45383,2.37979 11.42857,0 7.43684,-5.94948 13.44707,-14.07967 17.14286,-22.85715 4.132,-9.81352 3.80952,-20.95238 5.71428,-31.42857 0.18141,-0.99777 9.23211,-40.12865 5.71429,-48.57143 -8.50062,-20.40148 -25.00671,-22.85714 -45.71429,-22.85714 -13.4687,0 -29.7738,-3.051028 -40,5.71429 -25.30855,21.69304 -43.058212,51.29308 -59.999999,80 -17.546432,29.73145 -31.452459,61.7009 -42.857142,94.28571 -28.85798655,82.45139 -45.643117,162.14545 -54.285715,248.57143 -1.895309,18.95309 0,38.09524 0,57.14286 0,19.35205 -11.925696,52.67081 22.8571431,51.42857 C 73.568306,632.48987 90.135945,588.62995 134.28571,520.93363 171.371,464.06952 205.63979,371.26888 220,306.64792 c 9.39706,-42.28679 8.57143,-74.75008 8.57143,-114.28572 0,-8.57142 1.40913,-17.25948 0,-25.71428 -1.69272,-10.15629 -5.09728,-8.57143 -11.42857,-8.57143 -0.95238,0 -2.82432,-0.95181 -2.85715,0 -0.95181,27.60264 0,55.2381 0,82.85714 0,44.91133 -5.35379,103.65533 17.14286,145.71429 20.97239,39.20924 60.73101,60.55598 102.85714,65.71428 28.35962,3.47261 58.17683,7.61675 85.71429,0 48.27954,-13.35391 75.04846,-81.76181 91.42857,-117.14285 11.14599,-24.07534 20.76925,-48.92865 28.57143,-74.28572 3.00372,-9.76208 7.65095,-52.82763 8.57143,-65.71428 0.27142,-3.79985 0.74711,-15.16412 0,-11.42857 -1.69134,8.4567 -1.30196,17.23149 -2.85714,25.71428 -8.92557,48.68492 -21.4134,96.73828 -28.57143,145.71429 -13.02885,89.14475 -29.8401,246.3223 -34.28572,348.57143 -1.07559,24.73853 0,49.52381 0,74.28571 0,10.47619 -1.59298,21.0742 0,31.42857 0.40961,2.66242 3.89406,7.69999 5.71429,5.71429 32.29531,-35.23125 32.63799,-63.04966 40,-111.42857 8.96488,-58.91209 5.71428,-100.01329 5.71428,-162.85715 0,-13.71997 2.30987,-38.05499 -5.71428,-51.42857 -4.70633,-7.84387 -19.447,-5.71428 -25.71429,-5.71428"
       id="path14455"
       inkscape:connector-curvature="0" />
    <path
       style="fill:none;fill-rule:evenodd;stroke:#000000;stroke-width:1px;stroke-linecap:butt;stroke-linejoin:miter;stroke-opacity:1"
       d="m 637.14286,306.64792 c -17.6897,126.77617 -13.7118,126.97228 -48.57143,254.28571 -10.02273,36.60475 -21.52104,72.83034 -34.28572,108.57143 -6.30958,17.66683 -16.5837,33.74888 -22.85714,51.42857 -4.24913,11.97482 -6.07951,24.68326 -8.57143,37.14286 -0.37355,1.86777 -0.4283,7.57027 0,5.71429 17.56046,-76.09532 30.21788,-153.41179 51.42857,-228.57143 22.65812,-80.28853 55.00424,-157.55109 80,-237.14286 23.52018,-74.89319 44.71222,-179.70185 57.14286,-254.285714 4.25342,-25.520505 5.63369,-51.4376541 8.57143,-77.142857 0.87185,-7.628682 2.00921,-15.225765 2.85714,-22.857143 0.10518,-0.946556 0.94847,-2.770918 0,-2.857143 -54.07141,-4.915582 -49.1065,6.826504 -94.28571,68.5714289 C 589.57542,62.79961 552.3758,117.66237 520,175.21935 c -32.73823,58.20129 -96.63393,209.9018 -120,280 -8.69227,26.07681 -12.27883,53.61934 -20,80 -3.72616,12.73104 -9.62802,24.72232 -14.28571,37.14285 -1.05748,2.81994 -2.1267,5.64966 -2.85715,8.57143 -0.23098,0.92395 0,3.80953 0,2.85715 0,-11.42858 -0.98398,-22.89959 0,-34.28572 5.68697,-65.80631 10.40716,-131.79158 20,-197.14286 14.78007,-100.68923 29.72182,-110.32266 48.57143,-202.85714 4.40933,-21.64578 4.68816,-43.96797 8.57143,-65.714284 0.90158,-5.048861 1.12701,-11.992077 5.71429,-14.285714 3.40734,-1.703671 0,7.619047 0,11.428571 0,138.095237 0,276.190477 0,414.285717 0,311.38643 -23.30822,496.15647 45.71428,785.71425 7.63226,32.0183 69.83154,243.76 151.42857,262.8572 23.64217,5.5332 46.00262,-25.7469 54.28572,-48.5715 35.77478,-98.5793 62.008,-201.5654 74.28571,-305.7142 9.3718,-79.4987 12.20513,-522.42634 2.85714,-651.42861 -0.67012,-9.2477 -34.63432,-210.78688 -40,-240 -2.46336,-13.41167 -6.20168,-26.57147 -8.57142,-40 -0.49653,-2.81367 0,-5.71429 0,-8.57143 0,-0.95238 -0.14268,-3.79877 0,-2.85714 32.38342,213.73059 -8.25945,-29.23482 60,325.71428 9.13725,47.51373 16.86441,95.28906 25.71428,142.85715 6.38858,34.33862 12.87632,68.66346 20,102.85714 2.40264,11.53269 4.84617,23.10994 8.57143,34.28571 0.30117,0.90351 2.89851,0.95149 2.85714,0 C 839.9979,786.59972 841.81063,720.22006 831.42857,655.21935 808.54114,511.92415 738.50948,316.90474 680,189.50506 667.18055,161.59173 603.13849,52.032565 565.71429,9.5050619 557.24968,-0.11381187 547.21793,-8.2930916 537.14286,-16.209224 c -3.34907,-2.631411 -8.41688,-8.725979 -11.42857,-5.714286 -9.03508,9.035079 -14.68943,21.74593936 -17.14286,34.285715 -14.79312,75.609288 -23.65297,152.265825 -34.28572,228.571425 -5.55941,39.89698 -9.94319,79.9523 -14.28571,120 -4.22939,39.00438 -8.7748,77.99971 -11.42857,117.14286 -1.15957,17.1036 0,34.28571 0,51.42857 0,2.85714 -1.15476,11.18482 0,8.57143 19.15716,-43.35568 38.24833,-86.8246 54.28571,-131.42857 6.86621,-19.09663 58.05194,-192.68665 65.71429,-222.85714 6.71312,-26.4329 11.37938,-53.34393 17.14286,-80 1.85561,-8.582207 3.58469,-17.195935 5.71428,-25.71429 0.73044,-2.921771 1.18656,-6.065548 2.85714,-8.571428 0.52829,-0.792429 2.74587,-0.945858 2.85715,0 18.34236,155.910078 9.26538,258.292098 11.42857,439.999998 0.5443,45.72097 5.1405,91.4757 2.85714,137.14286 -1.54037,30.80748 -9.59536,60.94129 -14.28571,91.42857 -2.92873,19.03674 -5.6427,38.10611 -8.57143,57.14286 -0.88088,5.72574 -2.73391,22.93465 -2.85714,17.14285 -1.07372,-50.46476 -3.02314,-101.04299 0,-151.42857 11.73887,-195.64796 30.60142,-296.62254 48.57142,-482.85714 7.25389,-75.17661 9.45425,-129.807138 11.42858,-202.857142 0.20584,-7.616267 0,-15.238096 0,-22.857143 0,-0.952381 0.26163,-3.77288 0,-2.857143 -17.39458,60.881023 -34.28572,121.904762 -51.42858,182.857138 -29.52381,99.04762 -60.0861,197.7916 -88.57142,297.14286 -10.56807,36.85934 -20.11199,74.02894 -28.57143,111.42857 -14.62942,64.67743 -31.42857,135.13888 -31.42857,202.85715 0,2.12958 4.65348,-1.01057 5.71428,-2.85715 24.83723,-43.23517 50.43134,-86.20375 71.42857,-131.42857 36.88972,-79.45477 37.07438,-104.97069 60,-180 3.25746,-10.66077 8.1036,-20.78866 11.42857,-31.42857 1.44849,-4.63515 2.45386,-19.12515 2.85715,-14.28571 1.34454,16.13455 1.85582,32.48766 0,48.57142 -9.58735,83.09032 -23.41868,165.63877 -34.28572,248.57143 -82.69532,631.09587 32.04753,-217.72309 -37.14285,294.28572 -3.73371,27.62935 -9.06431,55.07705 -11.42858,82.85715 -1.45371,17.0811 -13.94971,41.4645 0,51.4286 11.44251,8.1732 16.20854,-23.6019 20,-37.1429 22.98239,-82.07993 48.82266,-164.0707 60,-248.57142 17.65777,-133.49271 27.22567,-306.46501 -17.14285,-442.85715 -5.18823,-15.949 -62.00683,-116.57598 -88.57143,-134.28571 -12.89981,-8.59987 -33.22376,-17.75564 -45.71429,-8.57143 -25.54039,18.7797 -40.10166,50.39105 -51.42857,80 C 277.6732,615.43703 258.8179,721.48375 225.71429,1040.9336 221.734,1079.3434 208.23318,1312.0803 260,1355.2193 c 30.13963,25.1164 88.0127,14.8519 117.14286,-11.4285 66.49319,-59.9884 109.04163,-144.0132 145.71428,-225.7143 93.33683,-207.94027 93.14884,-386.50702 105.71429,-611.42858 3.29404,-58.96336 8.5456,-118.36217 2.85714,-177.14286 -2.98816,-30.87765 -17.5519,-59.57266 -28.57143,-88.57143 -3.00221,-7.90057 -24.32081,-69.18032 -48.57143,-74.28571 -10.62589,-2.23703 -25.24762,-0.3566 -31.42857,8.57143 -38.33259,55.3693 -67.44348,116.70202 -97.14285,177.14285 C 339.3274,528.1671 379.40596,453.62206 340,580.93363 c -42.49073,113.30862 -6.16845,7.53094 -20,62.85715 -0.46197,1.84789 -0.19434,-3.81947 0,-5.71429 3.61625,-35.25845 8.65721,-70.37938 11.42857,-105.71429 4.5834,-58.43834 19.72392,-271.79379 11.42857,-340 -3.79007,-31.16285 -30.29508,-65.81228 -51.42857,-88.57142 -3.24024,-3.4895 -9.24782,-12.804645 -11.42857,-8.571432 -16.69375,32.405512 -29.69943,67.172502 -37.14286,102.857142 -48.97148,234.77504 -60.53603,332.68349 -74.28571,542.85714 -7.18463,109.82219 -5.71429,121.00391 -5.71429,222.85715 0,10.47619 -4.12677,21.79943 0,31.42857 1.87581,4.37688 7.06558,-6.91103 8.57143,-11.42857 15.7215,-47.1645 33.85052,-93.96404 42.85714,-142.85715 16.10646,-87.43505 18.63748,-207.34838 20,-300 0.37811,-25.7115 0,-51.42857 0,-77.14285 0,-6.66667 2.62613,-13.87237 0,-20 -1.12548,-2.62613 -7.56821,-2.67523 -8.57142,0 -33.91896,90.45055 -52.97764,199.17388 -71.42858,291.42857 -7.21695,36.08477 -13.7665,72.30383 -20,108.57143 -4.24379,24.69118 -7.67546,49.51519 -11.42857,74.28571 -1.00884,6.65836 -2.11346,13.30684 -2.85714,20 -0.21035,1.89311 0,7.61905 0,5.71429 0,-112.1982 -4.06889,5.04256 25.71429,-165.71429 7.75361,-44.45405 11.87037,-89.46962 17.14285,-134.28571 6.97841,-59.31646 5.71429,-49.17214 5.71429,-100 0,-4.76191 4.25918,-16.41531 0,-14.28572 -5.38748,2.69374 -4.533,11.23644 -5.71429,17.14286 -0.31301,1.56507 -33.7542,183.58013 -37.14285,208.57143 -3.85811,28.45355 -6.02911,57.11312 -8.57143,85.71428 -1.26766,14.2612 -2.17614,28.55593 -2.85715,42.85715 -0.2718,5.70781 0,22.85714 0,17.14285 0,-40.20305 -0.9428,-13.40033 8.57143,-80 1.90476,-13.33333 3.66628,-26.68791 5.71429,-40 1.76177,-11.45148 3.70077,-22.8758 5.71428,-34.28571 0.84394,-4.78232 1.32148,-18.89272 2.85715,-14.28572 2.40935,7.22807 0.91681,15.29346 0,22.85715 -6.70981,55.3559 -13.48285,110.74684 -22.85715,165.71428 C 102.69902,988.87377 87.064222,1056.0647 74.285714,1123.7908 62.922784,1184.0143 48.162558,1278.8979 40,1338.0765 c -2.35677,17.0866 -3.483398,34.3251 -5.714286,51.4286 -0.628098,4.8154 -5.50372,18.3573 -2.857143,14.2857 14.872005,-22.88 25.805784,-48.122 40,-71.4286 C 134.38882,1228.983 198.95476,1126.5903 262.85714,1023.7908 363.4455,861.97472 304.49706,963.61104 380,823.79078 c 10.32902,-19.12783 20.87142,-38.13999 31.42857,-57.14286 3.72893,-6.71208 7.4781,-13.41588 11.42857,-20 1.76671,-2.94451 5.42912,-11.99343 5.71429,-8.57143 6.38825,76.65902 -45.02925,112.90124 -91.42857,182.85714 -299.6663,451.80457 -12.43294,8.84249 -122.85715,179.99997 -10.4545,16.2045 -21.20794,32.2185 -31.42857,48.5715 -4.06951,6.5112 -10.16626,12.4261 -11.42857,20 -0.49512,2.9707 6.54813,-0.6264 8.57143,-2.8572 35.3933,-39.0234 70.64419,-78.3126 102.85714,-120 16.4811,-21.3285 27.5868,-46.36 42.85715,-68.57141 16.18653,-23.54405 35.13154,-45.10371 51.42857,-68.57143 7.54685,-10.86746 31.83407,-28.36867 20,-34.28571 -12.10686,-6.05343 -16.48654,21.52561 -25.71429,31.42857 -2.89352,3.10524 -110.66561,113.00558 -134.28571,139.99998 -12.92897,14.776 -24.70997,30.5186 -37.14286,45.7143 -4.71023,5.757 -9.02602,11.8832 -14.28571,17.1429 -1.50585,1.5058 -6.66667,4.7619 -5.71429,2.8571 16.0102,-32.0204 31.09409,-64.8215 51.42857,-94.2857 26.53015,-38.44165 100.25515,-123.22842 140,-165.7143 10.12136,-10.81938 21.67245,-20.27871 31.42857,-31.42857 3.65687,-4.17927 5.10232,-9.94932 8.57143,-14.28571 0.59495,-0.74369 3.36191,-0.80762 2.85714,0 -24.08085,38.52936 -48.45187,76.90909 -74.28571,114.28571 -18.95269,27.42092 -40.46267,52.99252 -60,79.99997 -12.85094,17.7646 -35.6844,32.4089 -37.14286,54.2857 -0.80134,12.0201 24.42441,-4.509 34.28572,-11.4285 C 494.37859,891.36066 705.96196,730.99079 922.85714,578.07649 1028.8573,503.3448 1138.4658,433.86258 1245.7143,360.93363 c 35.6143,-24.21771 70.499,-49.49131 105.7143,-74.28571 58.1181,-40.9199 120.5724,-76.30566 174.2857,-122.85714 11.8696,-10.28704 -32.8401,2.43045 -45.7143,11.42857 -76.6833,53.59582 -146.7446,116.09219 -220,174.28571 -116.736,92.73419 -57.3316,43.03133 -168.5714,145.71429 -9.415,8.69078 -20.5673,15.70903 -28.5715,25.71428 -1.3303,1.66293 4.0783,4.22048 5.7143,2.85715 76.6618,-63.88482 59.1566,-55.79539 108.5715,-102.85715 10.2524,-9.76425 21.4172,-18.56009 31.4285,-28.57143 0.6735,-0.67343 -2.1768,-0.66645 -2.8571,0 -46.1831,45.24061 -91.9072,90.95489 -137.1429,137.14286 -45.2454,46.19799 -89.22888,93.618 -134.28569,140 -19.70807,20.28773 -40.4936,39.51829 -60,60 -4.83763,5.07952 -61.81313,72.56178 -82.85714,85.71429 -3.61177,2.25736 3.80953,-7.61905 5.71429,-11.42857 -35.2381,9.52381 -76.39147,6.83209 -105.71429,28.57142 -138.83236,102.92744 -263.00053,224.3509 -391.42857,340 -63.06294,56.788 -121.79398,118.2098 -182.85714,177.1429 -20.842027,20.1149 -42.579202,39.3165 -62.857146,60 -27.360503,27.9077 -106.730092,114.2263 -80,85.7142 144.164266,-153.7752 183.236116,-191.841 317.142856,-351.4285 20.08069,-23.9318 37.9631,-49.626 57.14286,-74.2857 35.02238,-45.0288 63.5076,-76.32224 91.42857,-122.85718 3.1375,-5.22918 -7.45991,9.6556 -11.42857,14.28571 -1.75306,2.04524 -3.80953,3.80953 -5.71429,5.71429 -0.95238,0.95238 -2.48713,4.15219 -2.85714,2.85714 -2.1094,-7.38291 -3.19067,-15.18605 -2.85714,-22.85714 0.62602,-14.39854 2.7943,-28.74391 5.71428,-42.85714 8.38321,-40.51883 11.87616,-31.48073 17.14286,-65.71429 0.57927,-3.76523 2.28571,-8.38095 0,-11.42857 -1.71429,-2.28572 -6.32891,-1.77041 -8.57143,0 -17.07191,13.47782 -62.23176,59.37462 -80,77.14286 -6.66667,6.66666 -12.99215,13.69294 -20,20 -2.55237,2.29713 -9.69083,8.96056 -8.57143,5.71428 C 333.29365,899.2392 344.91759,869.17304 360,840.93363 439.81619,691.49056 438.6085,728.6981 477.14286,632.3622 c 10.97057,-27.42642 60.90231,-80.89222 31.42857,-82.85714 -36.30983,-2.42065 -51.33818,51.75688 -74.28572,80 -77.15776,94.9634 -104.21662,134.4324 -160,225.71429 -15.58624,25.50476 -30.73821,51.27509 -45.71428,77.14285 -5.97902,10.3274 -9.37677,22.36814 -17.14286,31.42858 -2.4792,2.8924 -0.8264,-7.70977 0,-11.42858 1.11258,-5.00659 4.36483,-9.3377 5.71429,-14.28571 1.52426,-5.58898 2.03787,-11.40797 2.85714,-17.14286 0.92814,-6.49697 -3.68831,-8.46753 -14.28571,-2.85714 -27.44682,14.53067 -49.73456,42.19617 -71.42858,62.85714 -7.33113,6.98204 -15.07971,13.51881 -22.85714,19.99997 -3.6582,3.0485 -10.12037,13.1501 -11.42857,8.5715 -21.620592,-75.67211 78.51997,-185.76461 97.14286,-217.1429 36.42958,-61.38135 75.46338,-121.20254 111.42857,-182.85714 24.25626,-41.58217 49.94545,-106.89665 65.71428,-148.57143 1.71858,-4.54194 7.64728,-15.08407 2.85715,-14.28571 -52.58155,8.76359 -76.21432,43.42248 -114.28572,77.14286 -5.5294,4.89747 -39.86517,34.89888 -54.28571,45.71428 C 205.82434,571.56538 200,578.65321 200,575.21935 200,472.67543 249.35741,421.41389 308.57143,323.79078 343.09262,266.87746 384.1757,214.1787 420,158.07649 c 14.68646,-22.99955 26.74745,-47.57399 40,-71.428571 10.55715,-19.002867 20.64326,-38.268554 31.42857,-57.142857 0.66824,-1.169411 3.80953,-3.809524 2.85714,-2.857143 -33.81287,33.812877 -66.18712,69.044266 -100,102.857141 -11.91428,11.91428 -24.52276,23.12178 -37.14285,34.28572 -12.14758,10.74593 -24.2596,21.57666 -37.14286,31.42857 -3.38331,2.58724 -10.72837,9.91551 -11.42857,5.71428 -9.31477,-55.88861 65.72207,-116.795864 85.71428,-142.85714 26.89722,-35.062436 53.17995,-70.592791 80,-105.714285 13.18073,-17.260471 26.33531,-34.548657 40,-51.428572 2.54235,-3.140543 6.14707,-11.803913 8.57143,-8.571433 4,5.33334 3.23762,14.17229 0,20.000005 -16.29347,29.328251 -35.7859,56.982368 -57.14285,82.8571426 C 420.15467,50.41657 382.88076,86.923941 331.42857,129.50506 c -13.06331,10.81102 -25.11382,23.30884 -40,31.42857 -6.74078,3.67679 -16.34592,6.92666 -22.85714,2.85715 -4.84571,-3.02857 -0.49503,-11.45006 0,-17.14286 3.00411,-34.54728 4.07527,-49.368659 14.28571,-80.000001 2.29364,-6.880911 6.27779,-13.119089 8.57143,-20 0.60234,-1.807016 1.34687,-7.061156 0,-5.714286 -2.12959,2.129589 -0.84896,6.326991 -2.85714,8.571429 C 246.86271,96.120687 255.35066,84.867246 220,112.3622 c -9.62728,7.48789 -18.90425,15.42085 -28.57143,22.85715 -2.72176,2.09366 -5.82434,3.65397 -8.57143,5.71428 -1.07749,0.80813 -1.90476,3.80953 -2.85714,2.85715 -6.53111,-6.53112 0.26629,-12.71199 -2.85714,-20 -5.11655,-11.93861 -12.5707,-8.57143 -22.85715,-8.57143 -9.52381,0 -19.43461,-2.6873 -28.57142,0 -7.85979,2.3117 -13.18327,9.74122 -20,14.28571 -7.475763,4.98384 -15.381388,9.30188 -22.857147,14.28572 -3.962144,2.64143 -7.710149,5.59669 -11.428572,8.57142 -1.051728,0.84139 -1.904761,3.80953 -2.857142,2.85715 -1.34687,-1.34687 0,-3.80953 0,-5.71429 0,-6.66666 -0.51131,-13.35297 0,-20 3.326854,-43.249103 2.857142,0.13581 2.857142,-25.71428 0,-1.90477 1.831475,-5.191011 0,-5.71429 -6.410159,-1.831474 -13.750498,-2.321243 -20,0 -27.560926,10.23692 -53.5690997,24.26627 -80,37.14286 -55.035893,26.81236 -7.197234,8.67194 -65.714285,31.42857 -5.613824,2.18315 -11.119476,5.71428 -17.142856,5.71428 -2.69374,0 3.94413,-3.68381 5.71428,-5.71428 30.615182,-35.11741 63.284009,-68.587411 91.428576,-105.714287 46.199728,-76.999547 33.041632,-60.16756105 82.857143,-125.714285 4.50081,-5.92212 8.414249,-12.576163 14.285714,-17.142858 3.099602,-2.410801 7.916364,-4.613246 11.428571,-2.857142 2.555507,1.277753 0.211062,5.722092 0,8.571428 -1.694348,22.873703 0.450987,46.479201 -5.714285,68.5714287 C 83.074897,12.058111 69.50515,28.542872 60,46.647919 c -10.49486,19.99021 -22.315322,39.3433 -31.428571,60.000001 -11.691557,26.50086 -14.139532,51.46841 -17.142858,80 -0.398799,3.78859 -3.0476186,9.14286 0,11.42857 6.282828,4.71212 15.038985,4.9697 22.857143,5.71429 30.706601,2.92443 32.68691,4.02787 54.285715,-8.57143 5.932188,-3.46045 11.554361,-7.43679 17.142861,-11.42857 1.09599,-0.78286 1.65246,-2.25481 2.85714,-2.85715 0.85183,-0.42591 3.05946,-0.93064 2.85714,0 -18.227472,83.84638 -28.185548,97.65072 -77.142856,188.57143 -38.4193289,71.35018 -78.307131,141.94046 -120,211.42857 -9.799919,16.3332 -23.635394,29.92244 -34.285714,45.71429 -16.99051,25.19283 -32.54657,51.32503 -48.57143,77.14286 -1.12306,1.80938 -4.4551,7.122 -2.85714,5.71428 C 6.0365693,553.16672 -26.609744,580.08462 162.85714,338.07649 207.36021,281.23224 249.18747,222.33546 291.42857,163.79078 322.51604,120.70463 324.69448,107.52639 360,69.505062 c 0.91648,-0.986978 3.15726,1.544135 2.85714,2.857143 -7.46378,32.654055 -15.75306,65.162085 -25.71428,97.142855 -8.15465,26.1807 -19.56297,51.24353 -28.57143,77.14286 -6.23403,17.92282 -12.02635,36.01245 -17.14286,54.28571 -1.56199,5.57856 -2.03787,11.40798 -2.85714,17.14286 -0.13469,0.94281 -0.70471,3.49778 0,2.85714 16.76141,-15.23765 80.17749,-82.34253 85.71428,-88.57143 13.04402,-14.67451 24.57359,-30.63115 37.14286,-45.71428 6.4812,-7.77743 12.43327,-16.13116 20,-22.85714 1.42364,-1.26546 5.44491,-1.88562 5.71429,0 1.88562,13.19932 4.46353,27.43597 0,40 C 415.58273,264.47856 385.95601,321.99187 360,380.93363 c -19.75878,44.86891 -38.6109,90.1707 -60,134.28572 -9.12206,18.81425 -21.1988,36.05003 -31.42857,54.28571 -11.67676,20.81509 -22.78395,41.94485 -34.28572,62.85714 -1.02628,1.86598 1.54971,-4.03329 2.85715,-5.71428 C 282.5282,568.29534 328.76495,510.6092 374.28571,452.3622 417.3369,397.27521 460.44212,342.22622 502.85714,286.64792 545.29114,231.04475 532.36002,239.41361 580,189.50506 c 6.06274,-6.35143 15.12944,-24.44869 20,-17.14286 9.52381,14.28572 2.85714,34.25928 2.85714,51.42858 0,62.86435 -1.24576,125.72772 -2.85714,188.57142 -6.76457,263.81812 -2.16669,36.14322 -14.28571,254.28572 -0.84526,15.21463 -1.26546,30.52883 0,45.71428 0.6522,7.82641 -2.03905,24.10769 5.71428,22.85715 29.88097,-4.81951 59.26027,-18.18799 82.85714,-37.14286 C 703.66175,674.47935 788.98496,566.96747 820,526.64792 c 10.80121,-14.04158 20.01751,-29.30651 31.42857,-42.85714 3.92808,-4.6646 15.28826,-17.44382 14.28572,-11.42858 -8.39224,50.35342 -20.75023,100.22707 -37.14286,148.57143 C 660.29833,1067.2231 735.19385,851.90629 600,1269.5051 c -10.48239,32.3789 -19.88219,65.1279 -31.42857,97.1428 -9.4202,26.1196 -19.73581,51.9585 -31.42857,77.1429 -0.8968,1.9315 -5.64005,4.9854 -5.71429,2.8571 -2.8888,-82.8122 -0.30873,-165.748 -2.85714,-248.5714 C 525.4047,1095.1579 518.74075,992.37595 514.28571,889.50506 508.26453,750.47039 505.28083,611.28904 497.14286,472.3622 491.94432,383.61581 481.45263,295.25708 474.28571,206.64792 470.97615,165.72962 469.06795,124.70549 465.71429,83.790776 464.30521,66.600076 461.6353,49.532862 460,32.362205 c -0.27088,-2.844273 0,-11.428572 0,-8.571429 0,99.088144 -5.72222,55.216946 48.57143,200.000004 40.33874,107.56997 57.00933,148.45964 111.42857,237.14285 1.84231,3.00229 49.28356,69.28356 54.28571,74.28572 3.62656,3.62656 11.99208,10.30156 14.28572,5.71428 45.44267,-90.88534 46.94522,-326.89979 48.57143,-368.57143 3.93661,-100.875594 0,-201.904757 0,-302.85714 0,-30.47619 1.427,-60.98581 0,-91.42857 -1.77156,-37.79322 -3.28927,-84.75976 -17.14286,-122.85714 -0.32547,-0.89504 -2.74185,-0.94538 -2.85714,0 -4.74933,38.94448 -8.29033,78.03556 -11.42857,117.14285 C 696.47095,-112.45165 690.61307,3.008464 680,118.07649 c -16.71658,181.24297 -25.80922,200.94934 -40,342.85714 -2.37671,23.76706 -2.65761,47.73937 -5.71429,71.42857 -0.77082,5.97387 -0.3268,14.44912 -5.71428,17.14286 -4.25918,2.12959 0.0541,-9.52412 0,-14.28571 -0.89828,-79.04825 -0.30836,-158.1306 -2.85714,-237.14286 -6.3673,-197.3861 -13.48395,-319.622053 -34.28572,-508.57143 -3.58158,-32.53266 -8.67785,-64.89764 -14.28571,-97.14286 -2.01845,-11.60609 -5.33513,-22.95867 -8.57143,-34.28571 -0.58504,-2.04765 -2.39517,-7.79316 -2.85714,-5.71429 C 539.8714,-231.34481 542.33123,-121.2909 531.42857,0.9336333 521.22374,115.33511 507.84286,229.43455 497.14286,343.79078 c -4.53883,48.50871 -7.65581,97.13998 -11.42857,145.71428 -3.84629,49.52097 -6.79233,99.11817 -11.42858,148.57143 -1.08146,11.53563 -1.15025,23.6363 -5.71428,34.28571 -1.91296,4.46357 -2.34496,-9.45659 -2.85714,-14.28571 -6.15682,-58.05001 -10.08835,-116.33795 -17.14286,-174.28571 -10.15492,-83.41543 -19.19597,-150.55631 -40,-228.57143 -4.88942,-18.33533 -9.57661,-36.88334 -17.14286,-54.28572 -2.14813,-4.94069 -6.71906,-14.04496 -11.42857,-11.42857 -8.57143,4.76191 -11.5314,16.30371 -14.28571,25.71429 -8.76316,29.94077 -13.60892,60.8934 -20,91.42857 -30.59143,146.15905 -34.05264,136.62162 -40,271.42857 -1.13336,25.6893 0,51.42857 0,77.14286 0,14.28571 -1.77193,28.68174 0,42.85714 0.26414,2.11314 4.67703,4.71705 5.71428,2.85714 27.59177,-49.47489 57.06505,-98.45733 77.14286,-151.42857 61.95715,-163.46141 68.70737,-261.30048 80,-437.14286 1.64911,-25.679013 4.5894,-52.511968 -2.85714,-77.142852 -3.43979,-11.377752 -32.33952,-60.648733 -60,-51.428572 -53.30496,17.768318 -57.4095,90.368597 -68.57143,131.428574 -51.25473,188.54417 -42.92071,146.01998 -54.28572,302.85714 -2.00088,27.61225 -4.29642,55.20882 -5.71428,82.85714 -0.48776,9.51131 0,19.04762 0,28.57143 0,2.85714 0,11.42857 0,8.57143 0,-32.38095 0,-64.7619 0,-97.14286 0,-33.33333 1.09231,-66.68457 0,-100 -0.81383,-24.82172 -0.51062,-50.00193 -5.71429,-74.28571 -4.96138,-23.15312 -13.92209,-51.12488 -40,-57.14286 -5.64475,-1.30263 -14.80452,-2.44307 -17.14286,2.85714 -13.14916,29.80477 -18.54853,62.50717 -25.71428,94.28572 -14.74954,65.41098 -29.17166,130.96966 -40,197.14286 -14.89943,91.05206 -28.27594,182.44972 -37.14286,274.28571 -4.48582,46.46033 -9.53609,93.80394 -2.85714,140 11.32075,78.30184 50.7431,148.99571 148.57143,140.00001 124.68372,-11.4652 181.15662,-112.21686 231.42857,-208.57144 26.7634,-51.29652 61.66912,-162.95533 54.28571,-225.71428 C 536.6717,571.21454 474.81373,573.47845 440,578.07649 c -26.87187,3.54912 -56.08391,8.64928 -77.14286,25.71429 -43.4182,35.18371 -132.36302,170.86759 -160,220 -12.75286,22.67175 -20.35257,47.89208 -31.42857,71.42857 -4.17509,8.87207 -9.90062,16.9441 -14.28571,25.71428 -1.34687,2.69374 -0.72756,6.44184 -2.85715,8.57143 -1.34687,1.34687 -0.19599,-3.81963 0,-5.71428 5.51937,-53.35386 7.61222,-107.21493 17.14286,-160 15.27124,-84.57918 37.81691,-167.68279 57.14286,-251.42858 30.02586,-130.11207 60.15829,-239.6003 80,-368.57142 4.36616,-28.38004 4.92004,-57.233469 8.57143,-85.71429 1.11657,-8.709235 3.99228,-17.104278 5.71428,-25.714285 0.18678,-0.933887 0,-3.809524 0,-2.857143 0,45.537203 1.74721,0.330857 -45.71428,99.999998 C 161.04713,385.88312 248.24047,198.49371 180,338.07649 c -11.59969,23.72663 -23.62544,47.26529 -34.28571,71.42857 -3.64693,8.26636 -3.92292,17.96677 -8.57143,25.71429 -1.54951,2.5825 -8.16451,5.84122 -8.57143,2.85714 -2.95962,-21.7039 0,-43.80952 0,-65.71429 0,-22.85714 0,-45.71428 0,-68.57142 0,-19.04762 -1.05657,-38.12457 0,-57.14286 0.85183,-15.33304 2.70259,-30.65582 5.71428,-45.71429 0.8353,-4.17646 3.15878,-8.02123 5.71429,-11.42857 1.26353,-1.68471 8.31559,2.19652 8.57143,5.71429 23.24192,319.57639 -27.73567,-19.5576 28.57143,497.14285 3.72857,34.21518 15.33015,67.18613 25.71428,100 23.64418,74.71559 48.86878,166.33425 117.14286,217.1429 10.5135,7.824 71.00899,-1.2188 85.71429,-8.5715 9.05513,-4.52753 15.36602,-13.18986 22.85714,-19.99997 2.98981,-2.71801 5.41624,-6.04728 8.57143,-8.57143 1.66293,-1.33034 3.80952,-3.80952 5.71428,-2.85714 1.70367,0.85184 -0.35102,3.84215 0,5.71429 15.66396,83.54115 2.12707,6.11679 14.28572,62.85715 1.21382,5.6645 1.60044,11.4877 2.85714,17.1428 0.65333,2.94 1.51027,5.8777 2.85714,8.5715 0.60234,1.2047 2.43123,4.1349 2.85715,2.8571 5.91703,-17.7511 8.81792,-36.3911 14.28571,-54.2857 5.29874,-17.34134 51.57885,-162.44996 68.57143,-211.42857 9.28132,-26.75203 18.5505,-53.51613 28.57143,-80 3.31946,-8.77286 6.22556,-17.90976 11.42857,-25.71428 1.05657,-1.58486 3.80952,0 5.71428,0 1.90477,0 4.92609,-1.73403 5.71429,0 4.49341,9.8855 7.11724,20.66757 8.57143,31.42857 3.32586,24.61135 2.91017,49.60947 5.71428,74.28571 10.05361,88.47175 7.39421,17.13002 11.42858,85.71429 0.4474,7.6059 0,15.23809 0,22.85714 0,0.95238 0,1.90476 0,2.85714 0,0.95239 0.50476,2.04953 0,2.85715 -4.34212,6.94739 -9.04089,13.7062 -14.28572,20 -16.68391,20.02069 -12.08141,7.01997 -22.85714,28.57143 -1.34687,2.69374 -2.36203,5.60071 -2.85714,8.57142 -0.46972,2.81827 -2.44998,7.10145 0,8.57143 4.0833,2.44998 9.52381,0 14.28571,0 5.71429,0 11.486,0.80813 17.14286,0 23.74128,-3.39161 18.23723,-5.12669 37.14285,-11.42857 0.47482,-0.15827 13.93539,-0.14013 14.28572,0 3.95455,1.58182 7.70538,3.64585 11.42857,5.71429 6.12089,3.40049 20.34577,11.77433 25.71429,17.14285 5.91153,5.91153 -9.03361,-0.23108 2.85714,5.71429 0.85183,0.42592 1.90476,0 2.85714,0 5.71429,0 11.42857,0 17.14286,0 5.71428,0 11.42857,0 17.14286,0 1.5536,0 9.03725,-0.46583 5.71428,2.85711 -1.34687,1.3469 -3.80952,0 -5.71428,0 -9.52381,0 -19.05745,-0.4324 -28.57143,0 -36.61685,1.6644 -30.69033,2.7341 -65.71429,8.5715 -13.25,2.2083 -19.00476,-1.4929 -25.71428,8.5714 -0.40605,0.6091 0,11.9024 0,14.2857 0,2.8163 0,8.5306 0,5.7143 0,-45.61637 -0.89753,7.9688 22.85714,-105.7143 19.10322,-91.42256 21.72607,-124.48111 25.71428,-222.85714 1.15735,-28.54798 0,-57.14286 0,-85.71428 0,-9.52381 4.25918,-20.05308 0,-28.57143 -7.81454,-15.62908 -34.94987,-26.73351 -48.57142,-8.57143 -21.86927,29.15903 -53.39597,122.35424 -62.85715,154.28571 -6.95608,23.47679 -12.0124,47.48646 -17.14285,71.42857 -5.05289,23.58012 -9.38777,49.79599 -11.42858,74.28572 -0.32381,3.88571 3.07302,12.96508 -5.71428,8.57143 -0.85184,-0.42592 -0.3868,-1.98685 0,-2.85715 11.07622,-24.9215 21.14281,-50.38951 34.28571,-74.28571 18.34159,-33.34835 38.10906,-66.00907 60,-97.14286 21.24041,-30.20857 84.56804,-101.13737 108.57143,-140 8.28424,-13.41258 12.94981,-28.75675 20,-42.85714 2.48351,-4.96701 9.9183,-8.89823 8.57143,-14.28571 -0.95238,-3.80953 -8.65193,0.0805 -11.42857,2.85714 -20.52597,20.52596 -37.9544,43.93279 -57.14286,65.71428 -16.05051,18.21951 -32.86923,35.76518 -48.57143,54.28572 -21.45033,25.30039 -40.3855,52.74507 -62.85714,77.14286 -10.98762,11.92941 -25.16576,20.49295 -37.14286,31.42857 -31.80472,29.03909 -16.48032,27.15435 -48.57143,34.28571 -1.8594,0.4132 -3.80952,0 -5.71428,0 -1.90476,0 -3.80953,0 -5.71429,0 -0.95238,0 -2.28571,0.76191 -2.85714,0 -2.55551,-3.40734 -3.69501,-7.67849 -5.71429,-11.42857 C 448.81504,730.77382 457.81218,757.42941 440,675.21935 433.23579,643.99991 426.00451,612.72203 422.85714,580.93363 409.5271,446.30016 411.42857,405.61247 411.42857,289.50506 c 0,-20.95238 -1.16223,-41.93702 0,-62.85714 0.74711,-13.44796 2.62942,-26.88934 5.71429,-40 0.78649,-3.34258 2.85714,-6.66667 5.71428,-8.57143 6.71107,-4.47405 26.49133,-2.85714 31.42857,-2.85714 4.76191,0 9.61629,-0.93389 14.28572,0 8.39982,-1.66296 12.96344,6.81229 20,8.57143 5.4643,1.36607 27.20167,-2.12661 28.57143,-2.85715 11.78774,-6.2868 33.14744,-26.21944 42.85714,-37.14285 2.28133,-2.5665 3.28618,-6.14333 5.71429,-8.57143 3.94463,-3.94463 11.23022,-5.07684 11.42857,2.85714 0.90448,36.17917 0,72.38095 0,108.57143 0,36.19048 2.57846,72.47292 0,108.57143 -2.19769,30.76758 -10.17049,60.85834 -14.28572,91.42857 -2.55385,18.9715 -3.74452,38.10185 -5.71428,57.14286 -0.88742,8.57839 -2.07635,17.12552 -2.85715,25.71428 -0.17244,1.89694 -1.34687,7.06116 0,5.71429 7.67834,-7.67834 13.33334,-17.14286 20,-25.71429 20.95978,-26.94828 20.61292,-23.03359 34.28572,-54.28571 2.41429,-5.51837 3.02054,-11.75538 5.71428,-17.14286 1.32763,-2.65525 19.55901,-25.19311 20,-25.71429 20.43997,-24.15632 37.83641,-41.13595 57.14286,-68.57142 6.86754,-9.75913 11.00323,-21.19586 17.14286,-31.42858 5.30012,-8.83352 13.01379,-16.27642 17.14286,-25.71428 2.69925,-6.16973 2.18705,-13.29907 2.85714,-20 3.19476,-31.94766 -23.7659,-12.18224 -71.42857,-8.57143 -85.51004,6.47803 -124.97722,12.70994 -202.85715,37.14286 -66.36529,20.82048 -48.57928,23.24019 -111.42857,40 -67.00888,17.86903 -11.18086,1.04046 -48.57143,5.71428 -2.98843,0.37356 -6.06554,4.52773 -8.57142,2.85715 -2.37729,-1.58486 0,-5.71429 0,-8.57143 0,-18.09524 -5.36342,-37.0036 0,-54.28572 12.12511,-39.06982 33.54386,-74.63717 51.42857,-111.42857 58.22002,-119.766908 31.03174,-58.91689 77.14285,-145.714284 6.99376,-13.164712 14.32412,-26.2157126 20,-40 1.08786,-2.641937 2.62613,-7.445945 0,-8.571428 -6.12763,-2.626129 -13.39671,-0.917123 -20,0 -27.76008,3.855566 -56.42151,4.977392 -82.85714,14.285714 -41.78875,14.7143489 -80.04171,38.0079 -120,57.142857 C 156.17525,73.107254 129.33343,85.14376 80,112.3622 c -11.58468,6.39155 -22.314149,14.36633 -34.285714,20 -4.393989,2.06776 -9.495579,2.05879 -14.285715,2.85715 -0.939422,0.15657 -2.431225,0.85183 -2.857142,0 -0.851836,-1.70367 0,-3.80953 0,-5.71429 0,-5.71428 0,-11.42857 0,-17.14286 0,-1.90476 0.602338,-3.90727 0,-5.71428 C 27.809524,104.3622 21.225148,101.10865 20,100.93363 c -4.714045,-0.67343 -9.52381,0 -14.2857143,0 -8.4817718,0 -17.6901367,-1.154928 -25.7142857,2.85715 -2.409354,1.20467 -4.509609,3.30493 -5.714286,5.71428 -0.851835,1.70367 1.904762,5.71429 0,5.71429 -1.904762,0 -0.7326,-3.95605 0,-5.71429 4.095363,-9.828868 8.807393,-19.440891 14.285715,-28.571427 25.026901,-41.711502 51.40492,-80.86989066 80,-120 6.40688,-8.767309 13.403812,-17.088502 20,-25.714285 5.785239,-7.565313 11.19338,-15.420297 17.142861,-22.857143 2.14511,-2.681393 6.14332,-8.142391 8.57142,-5.714286 0.67344,0.673435 0,1.904762 0,2.857143 0,3.809524 0,7.619047 0,11.428571 0,35.539467 1.30745,24.783696 -11.42857,77.1428574 C 98.868418,14.47458 92.288602,30.186149 88.571429,46.647919 81.64496,77.322281 82.857143,84.514018 82.857143,112.3622 c 0,4.76191 0,9.52381 0,14.28572 0,2.85714 -1.277753,6.01592 0,8.57143 0.602338,1.20467 2.593,-1.53643 2.857143,-2.85715 0.747109,-3.73554 0,-7.61904 0,-11.42857 0,-13.33333 0,-26.666663 0,-39.999997 0,-3.809524 0,-7.619047 0,-11.428571 0,-2.857143 1.469988,-6.121449 0,-8.571429 -4.062515,-6.770857 -8.517787,-5.714285 -14.285715,-5.714285 -3.809523,0 -7.619047,0 -11.428571,0 -1.904762,0 -4.010615,-0.851836 -5.714286,0 -3.252775,1.626387 -7.646079,7.727174 -8.571428,11.428571 -0.461973,1.84789 0,3.809524 0,5.714286 0,0.952381 -0.933887,2.670365 0,2.857143 4.669432,0.933886 9.538975,-0.37974 14.285714,0 19.081656,1.526532 38.278568,2.461822 57.14286,5.714285 36.44604,6.283801 72.20938,16.104192 108.57143,22.857147 30.32741,5.63223 61.13762,8.46053 91.42857,14.28571 133.7697,25.72494 -14.98741,5.74321 108.57143,20 7.62773,0.88012 15.20532,2.21949 22.85714,2.85714 3.79636,0.31637 7.89152,1.41482 11.42857,0 3.70898,-1.48359 2.85714,-8.89255 2.85714,-11.42857 0,-12.20362 -0.28429,-25.62424 2.85715,-37.142855 7.96964,-29.222039 15.96998,-36.10946 31.42857,-60 4.88097,-7.543323 9.1333,-15.496554 14.28571,-22.8571431 2.83117,-4.0445319 6.77471,-7.0201411 11.42857,-8.5714286 0.90351,-0.30116931 2.70058,-0.93942279 2.85715,0 0.93942,5.6365367 0,11.4285717 0,17.1428567"
       id="path14554"
       inkscape:connector-curvature="0" />
    <path
       style="fill:none;fill-rule:evenodd;stroke:#000000;stroke-width:1px;stroke-linecap:butt;stroke-linejoin:miter;stroke-opacity:1"
       d="m 654.28571,649.50506 c -36.62948,18.10586 9.15738,-25.95504 0,-28.57143 -6.41016,-1.83147 -13.33333,0 -20,0 -6.66666,0 -13.40033,-0.94281 -20,0 -6.86375,0.98054 -13.31087,3.88998 -20,5.71429 -3.7884,1.0332 -7.65289,1.77838 -11.42857,2.85714 -2.89581,0.82738 -5.98892,1.30764 -8.57143,2.85714 -2.30986,1.38592 -3.30493,6.91897 -5.71428,5.71429 -2.55551,-1.27775 0,-5.71429 0,-8.57143 0,-12.38095 0,-24.7619 0,-37.14286 0,-37.3008 -1.42364,-51.46804 2.85714,-85.71428 1.43709,-11.49675 4.4348,-22.77037 5.71429,-34.28572 0.63103,-5.67933 0,-11.42857 0,-17.14285 0,-0.95238 0.52828,-2.06472 0,-2.85715 -6.95222,-10.42833 -11.62348,-5.71428 -25.71429,-5.71428 -20,0 -40,0 -60,0 -3.80952,0 -7.61905,0 -11.42857,0 -2.85714,0 -5.8609,0.90351 -8.57143,0 -0.90351,-0.30117 0,-1.90476 0,-2.85714 0,-6.66667 0,-13.33334 0,-20 0,-10.47619 -1.53527,-21.06549 0,-31.42858 3.66384,-24.73092 10.95843,-45.96749 20,-68.57142 2.69374,-6.73435 5.87769,-13.26565 8.57143,-20 1.51431,-3.78579 2.6692,-11.42858 5.71429,-11.42858 0.95238,0 0,1.90477 0,2.85715 0,8.57143 1.33682,17.24774 0,25.71428 -3.51857,22.28428 -11.84234,33.89157 -20,54.28572 -2.23703,5.59257 -3.59934,11.50298 -5.71429,17.14285 -3.70898,9.89061 -2.85714,1.37309 -2.85714,11.42858 0,0.95238 -0.85184,2.43122 0,2.85714 1.70367,0.85183 3.90727,0.60234 5.71428,0 40.11372,-13.37124 3.60934,-1.45385 31.42857,-20 4.26736,-2.84491 10.01836,-2.86938 14.28572,-5.71429 1.77192,-1.18128 1.35129,-4.20844 2.85714,-5.71428 0.67344,-0.67344 2.43123,-0.85184 2.85714,0 0.85184,1.70367 -0.10565,3.81245 0,5.71428 3.45123,62.122 2.85715,26.14083 2.85715,74.28572 0,10.47619 0,20.95238 0,31.42857 0,1.90476 1.90476,5.71428 0,5.71428 -1.90476,0 -0.12671,-3.81374 0,-5.71428 0.826,-12.39003 1.87985,-24.76385 2.85714,-37.14286 1.87986,-23.8115 3.97122,-47.60666 5.71429,-71.42857 3.80766,-52.03814 2.85714,-39.31372 2.85714,-91.42857 0,-6.66667 0,-13.33333 0,-20 0,-1.90476 -1.34687,-4.36742 0,-5.71429 0.95238,-0.95238 2.48713,1.5621 2.85714,2.85715 3.4907,12.21745 7.04246,24.52883 8.57143,37.14285 9.10146,75.08705 -0.0236,33.86057 2.85714,85.71429 3.32966,59.93381 2.85715,-1.34092 2.85715,34.28571 0,0.95238 -0.0791,-1.90805 0,-2.85714 0.87358,-10.48305 1.36947,-21.0149 2.85714,-31.42857 1.37354,-9.6148 3.97687,-19.01567 5.71428,-28.57143 2.07261,-11.39933 3.20089,-22.9754 5.71429,-34.28571 1.30666,-5.87996 3.80952,-11.42858 5.71429,-17.14286 0.95238,-2.85714 0.72755,-6.44184 2.85714,-8.57143 1.34687,-1.34687 4.65771,-1.58486 5.71428,0 1.58486,2.37729 -0.19005,5.72061 0,8.57143 0.76286,11.44278 2.4874,22.82349 2.85715,34.28571 0.58341,18.08583 0,36.19048 0,54.28572 0,23.80952 0,47.61905 0,71.42857 0,0.95238 0.0317,-1.90529 0,-2.85714 -0.92067,-27.62013 -2.50736,-55.2239 -2.85715,-82.85715 -0.60272,-47.61523 0,-95.23809 0,-142.85714 0,-46.66667 0,-93.33333 0,-140 0,-32.380952 0,-64.761904 0,-97.1428567 0,-27.6190473 0,-55.2380953 0,-82.8571433 0,-11.428571 0.81426,-22.88619 0,-34.28571 -0.15172,-2.12418 -0.83683,-5.04085 -2.85714,-5.71429 -10.9911,-3.6637 -54.12173,-4.0328 -60,-2.85714 -16.83587,3.36717 -32.40239,11.3682 -48.57143,17.14285 -10.49791,3.74926 -21.24201,6.90122 -31.42857,11.428576 -7.01655,3.11847 -13.48878,7.359059 -20,11.428572 -1.80589,1.128679 -4.7619,4.761904 -2.85714,5.714285 1.70367,0.851836 3.83851,-0.331019 5.71428,0 14.34695,2.531814 28.63544,5.41105 42.85715,8.571429 20.0695,4.45989 39.93049,9.825824 60,14.285714 14.2217,3.160379 28.69524,5.153038 42.85714,8.571429 13.47974,3.253731 26.51022,8.216718 40,11.428571 54.58624,7.798034 3.70615,-1.621759 25.71429,5.714286 2.16736,0.722456 5.06396,-1.695142 5.71428,2.857143 0.80812,5.656854 0,11.428571 0,17.142857 0,16.1904761 0.39477,32.385766 0,48.571428 -0.55781,22.870174 -0.95731,45.773476 -2.85714,68.57143 -2.85598,34.2717 -7.17657,30.96713 -11.42857,62.85714 -0.62935,4.72013 0,9.52381 0,14.28572 0,0.95238 -0.85184,2.43122 0,2.85714 1.70367,0.85183 3.89375,0.56016 5.71428,0 10.65439,-3.27827 21.18256,-7.03742 31.42857,-11.42857 9.78701,-4.19443 18.94848,-9.72748 28.57143,-14.28572 8.47694,-4.01539 17.21441,-7.46196 25.71429,-11.42857 5.78939,-2.70171 11.16087,-6.32818 17.14286,-8.57143 1.78348,-0.6688 3.80952,0 5.71428,0 0.95238,0 2.73902,-0.94502 2.85714,0 5.40648,43.25182 -16.82413,52.16753 -48.57142,97.14286 -58.79801,83.29717 -37.48835,52.26465 -94.28572,111.42857 -9.80498,10.21352 -17.91633,22.10536 -28.57143,31.42857 -4.80803,4.20703 -10.8183,9.47494 -17.14285,8.57143 -3.88731,-0.55533 -2.67037,-7.50625 -2.85715,-11.42857 -1.62486,-34.12214 -0.98616,-76.43918 11.42857,-108.57143 9.06823,-23.4707 24.53598,-43.93877 37.14286,-65.71428 28.38505,-49.02873 19.02082,-29.61009 40,-68.57143 2.01928,-3.75008 3.0536,-8.10272 5.71429,-11.42857 1.33034,-1.66293 7.22013,-1.3513 5.71428,-2.85715 -2.0203,-2.0203 -6.1421,-1.50387 -8.57143,0 -17.97995,11.13045 -34.10485,25.01626 -51.42857,37.14286 -35.1959,24.63713 -71.95597,47.56038 -105.71428,74.28571 -8.99159,7.11834 -16.95963,15.44936 -25.71429,22.85715 -3.63517,3.07591 -13.55816,12.8306 -11.42857,8.57143 4.85621,-9.71242 11.9478,-18.42897 20,-25.71429 32.10022,-29.04305 66.14556,-55.87938 100,-82.85714 27.11181,-21.60472 55.851,-41.12049 82.85714,-62.857145 58.80994,-53.909106 9.23504,-10.840138 65.71429,-54.285715 2.13512,-1.642402 4.50961,-3.304931 5.71428,-5.714285 0.85184,-1.703671 1.90336,-5.64108 0,-5.714286 -118.05821,-4.540701 -127.36091,22.61712 -271.42857,80.000001 -46.8265,18.65123 -93.59875,37.45748 -140,57.14286 -117.14244,49.69679 21.13997,-2.13565 -100,40 -4.84406,1.68489 -9.42017,7.33613 -14.28571,5.71428 -3.25765,-1.08588 2.9372,-6.55173 5.71428,-8.57143 18.37273,-13.36198 37.80611,-25.21852 57.14286,-37.14285 37.81437,-23.31887 75.5235,-46.86459 114.28572,-68.571432 183.1609,-94.1970389 34.38865,-15.29643 148.57142,-80 12.23403,-6.9326132 24.56566,-13.7114008 37.14286,-20.0000004 4.58728,-2.2936371 9.88787,-3.0755767 14.28572,-5.7142856 0.81666,-0.489996 0.94655,-2.75197 0,-2.857143 -8.51901,-0.946556 -17.29582,-1.612048 -25.71429,0 -85.08279,16.2924484 -101.16854,23.934701 -174.28571,45.714286 -22.81871,6.797061 -45.8573,12.861271 -68.57143,20 -10.63449,3.342267 -20.71015,8.366163 -31.42857,11.428571 -2.74722,0.784918 -8.57143,2.857143 -8.57143,0 0,-4.04061 4.74923,-7.26096 8.57143,-8.571428 29.94733,-10.267658 60.85534,-17.495677 91.42857,-25.714286 58.00132,-15.591754 115.84208,-31.8723738 174.28571,-45.714286 35.7646,-8.470562 188.58991,-39.52689 242.85714,-48.571428 20.85858,-3.476429 41.8312,-6.318649 62.85715,-8.571429 5.68176,-0.608761 11.486,0.808122 17.14285,0 1.33334,-0.190476 2.73521,-4.198482 2.85715,-2.857143 1.03469,11.381637 1.94179,23.023313 0,34.285714 -5.56419,32.2722646 -33.70645,98.455285 -42.85715,122.857143 -14.90912,39.757677 -12.65925,31.457477 -20,65.714287 -3.04392,14.20496 -2.85714,9.62849 -2.85714,17.14286 0,0.95238 -0.67343,2.1837 0,2.85714 0.4969,0.49689 6.16977,-1.44928 2.85714,2.85714 -9.07046,11.7916 -18.68791,23.16676 -28.57142,34.28572 -43.45599,48.88798 -86.971,97.73531 -131.42858,145.71428 -51.74034,55.83859 -104.01792,111.19133 -157.14285,165.71429 -229.2111,235.24297 122.91993,-140.37564 -120,128.57143 -5.88546,6.51604 -13.43736,11.30939 -20,17.14285 -2.01333,1.78963 -8.06209,7.03493 -5.71429,5.71429 60.26816,-33.90084 46.82245,-29.85786 105.71429,-71.42857 14.02676,-9.90124 28.57143,-19.04762 42.85714,-28.57143 11.42857,-7.61905 22.44667,-15.893 34.28571,-22.85714 4.42063,-2.60037 9.69844,-3.42065 14.28572,-5.71429 1.20468,-0.60234 1.90476,-3.80952 2.85714,-2.85714 2.12959,2.12959 2.85714,5.55973 2.85714,8.57143 0,49.01814 -6.85203,39.41836 -34.28571,94.28571 -4.1948,8.38961 -7.23377,17.32468 -11.42857,25.71429 -3.43386,6.86771 -7.35906,13.48878 -11.42857,20 -0.71384,1.14214 -3.86708,3.74826 -2.85715,2.85714 17.19856,-15.1752 36.17388,-28.5862 51.42858,-45.71429 39.17467,-43.98559 74.43142,-91.31056 111.42857,-137.14285 96.93437,-120.08288 53.15446,-64.30134 120,-154.28572 11.35855,-15.29036 22.85714,-30.47619 34.28571,-45.71428 2.85714,-3.80953 5.20425,-8.0614 8.57143,-11.42858 1.50585,-1.50584 4.533,-4.62906 5.71429,-2.85714 2.11314,3.16972 1.30888,7.85096 0,11.42857 -13.06426,35.70897 -25.01811,72.13492 -42.85715,105.71429 C 751.97518,464.77867 714.27877,519.02464 680,575.21935 c -23.80952,39.04762 -47.61905,78.09524 -71.42857,117.14285 -9.52381,16.19048 -18.823,32.5152 -28.57143,48.57143 -6.44443,10.61435 -12.78246,21.32402 -20,31.42857 -2.4756,3.46584 3.22058,-7.97574 5.71429,-11.42857 22.3044,-30.88301 47.43999,-59.73141 68.57142,-91.42857 18.93741,-28.40611 33.9556,-59.24178 51.42858,-88.57143 9.19687,-15.43761 18.85429,-30.59874 28.57142,-45.71428 7.42754,-11.55395 14.87359,-23.10873 22.85715,-34.28572 1.5657,-2.19198 3.47296,-4.22006 5.71428,-5.71428 0.79243,-0.52829 3.34337,-0.81891 2.85715,0 -77.13723,129.91532 -95.43955,144.04622 -214.28572,294.28571 -46.4276,58.69149 -203.08147,254.51004 -265.71428,317.14284 -21.14629,21.1463 -47.57428,36.2496 -71.42858,54.2857 -15.19351,11.4878 -29.13213,24.9132 -45.71428,34.2857 -5.86268,3.3137 -14.85909,7.2072 -20,2.8572 -14.15804,-11.9799 -31.957945,-84.4453 -34.285716,-91.4286 -3.773741,-11.3212 -21.499529,-56.7849 -28.571428,-68.5714 -2.771836,-4.6197 -7.619048,-7.6191 -11.428572,-11.4286 -0.952381,-0.9524 -1.652465,-2.2548 -2.857143,-2.8571 -0.851835,-0.4259 -1.904761,0 -2.857142,0 -2.955766,0 -3.948997,-0.6735 -5.714286,2.8571 -0.425918,0.8519 0,1.9048 0,2.8572 0,18.6764 -2.43337,11.743 34.285714,17.1428 20.814912,3.061 41.954423,3.3254 62.857143,5.7143 65.20572,7.4521 9.31882,5.7143 71.42857,5.7143 4.76191,0 9.52381,0 14.28572,0 1.90476,0 3.80952,0 5.71428,0 0.95238,0 2.70057,0.9394 2.85714,0 9.07535,-54.4521 -69.70728,-87.67726 -100,-114.28572 -125.1196592,-109.90241 -72.164289,-59.00299 -159.999996,-120 -18.46193,-12.82079 -36.224161,-26.62108 -54.285714,-40 -7.652926,-5.66884 -30.47619,-22.85715 -22.85714,-17.14286 15.238092,11.42857 30.403009,22.95537 45.714283,34.28571 32.30824,23.9081 65.6096509,46.50717 97.142857,71.42857 27.55533,21.7776 54.262773,44.67258 80,68.57143 14.36681,13.34062 49.4674,53.82779 65.71429,71.42857 2.74066,2.9691 5.33894,6.1471 8.57142,8.5714 0.76191,0.5715 3.15832,0.9035 2.85715,0 C 187.20467,991.11906 152.72234,967.383 134.28571,949.50506 121.22336,936.83854 107.58742,924.77713 94.285714,912.3622 79.015911,898.11039 64.251841,883.30382 48.571429,869.50506 c -8.151859,-7.17363 -16.932372,-13.61315 -25.714286,-20 -1.722275,-1.25256 -4.761905,-4.7619 -5.714286,-2.85714 -2.129588,4.25918 -1.333333,9.71428 0,14.28571 5.399589,18.51288 14.218071,35.88867 20,54.28572 7.760863,24.69365 11.51546,55.89892 22.857143,80 2.596601,5.51775 8.40301,8.99095 11.428571,14.28575 0.945027,1.6538 1.904762,5.7142 0,5.7142 -4.259177,0 -8.156581,-2.9876 -11.428571,-5.7142 -8.277554,-6.898 -14.748159,-15.76182 -22.857143,-22.85718 -7.167397,-6.27147 -15.54075,-11.04586 -22.857143,-17.14286 -4.138777,-3.44898 -7.2216559,-8.06304 -11.4285711,-11.42857 -0.7436846,-0.59495 -2.67036563,-0.93389 -2.8571429,0 -0.93388636,4.66943 0,9.52381 0,14.28571 0,16.19048 0,32.381 0,48.5714 0,11.4286 -0.49642542,22.868 0,34.2857 0.77093,17.7314 0.20596422,26.2292 5.7142857,40 0.7909093,1.9773 1.4938135,7.3503 2.8571429,5.7143 C 14.024746,1094.3897 16.97217,1086.0386 20,1078.0765 42.703681,1018.3742 61.274606,957.08938 85.714286,898.07649 c 3.546425,-8.56332 81.897754,-162.65181 91.428574,-182.85714 11.09736,-23.52642 20.66457,-47.74777 31.42857,-71.42857 3.52492,-7.75483 7.29169,-15.41077 11.42857,-22.85715 1.64455,-2.9602 5.57864,-4.48492 5.71429,-2.85714 0.94909,11.38909 0,22.85714 0,34.28571 0,61.87953 1.96577,107.13096 -5.71429,168.57143 -2.29364,18.3491 -8.21495,36.07521 -11.42857,54.28572 -2.50462,14.19284 -3.46653,28.62136 -5.71429,42.85714 -0.61243,3.87872 -0.0805,8.65193 -2.85714,11.42857 -2.02031,2.02031 -8.03186,2.80573 -8.57143,0 -4.69003,-24.38818 -3.15878,-49.58249 -5.71428,-74.28571 -6.01719,-58.1661 -14.49303,-116.0691 -20,-174.28572 -27.97659,-295.75251 -4.36433,-160.19765 -34.28572,-334.28571 -5.5698,-32.40612 -11.26087,-64.79195 -17.14286,-97.14286 -1.73741,-9.55575 -2.64295,-19.35742 -5.71428,-28.57143 -1.20468,-3.61403 0,7.61905 0,11.42857 0,35.2381 -3.8078,70.68253 0,105.71429 12.45123,114.55129 22.72367,131.86932 45.71428,220 26.55065,101.77748 3.18482,36.21236 34.28572,102.85714 1.2736,2.72915 0.72755,6.44184 2.85714,8.57143 1.34687,1.34687 0.18348,-3.81838 0,-5.71428 -2.67458,-27.63733 1.21499,-56.87252 -8.57143,-82.85715 -27.96265,-74.24566 -84.771962,-160.0717 -139.999997,-220 C 21.8441,338.13225 -2.088622,318.1583 -25.714286,298.07649 c -14.51313,-12.33616 -30.170962,-23.27586 -45.714285,-34.28571 -7.331771,-5.19334 -14.677734,-10.5678 -22.857143,-14.28572 -2.601047,-1.18229 -7.951626,-2.7891 -8.571426,0 -11.91922,53.63649 3.82563,82.31955 28.571426,134.28572 15.947949,33.49069 34.335987,65.87031 54.285714,97.14285 15.3661627,24.0875 31.225521,48.36838 51.428571,68.57143 9.035079,9.03508 22.749386,11.64937 34.285715,17.14286 8.468709,4.03272 16.749208,8.67009 25.714285,11.42857 3.641063,1.12033 8.949369,2.89241 11.428569,0 4.51222,-5.26426 5.18252,-13.08698 5.71429,-20 1.38784,-18.04194 1.42414,-36.2466 0,-54.28571 -1.44178,-18.26259 -2.63,-36.95654 -8.57143,-54.28572 -6.765955,-19.73403 -32.07734,-55.40379 -45.714286,-74.28571 -5.5761,-7.72076 -11.541222,-15.1549 -17.142857,-22.85715 -0.183197,-0.25189 -5.934604,-14.06539 -11.428571,-8.57142 -1.34687,1.34687 -0.323633,3.83721 0,5.71428 18.61117,107.94479 3.681845,45.27929 40,137.14286 8.196832,20.73316 15.238095,41.90476 22.857143,62.85714 3.809523,10.47619 7.037421,21.18256 11.428571,31.42857 1.35266,3.15622 3.94758,5.62692 5.71429,8.57143 1.09566,1.82611 1.35129,7.22013 2.85714,5.71429 2.0203,-2.02031 1.46999,-6.12145 0,-8.57143 C 101.22149,574.39802 91.567297,563.6854 82.857143,552.3622 72.518484,538.92195 61.796679,525.77976 51.428571,512.3622 45.605262,504.82616 40.721187,496.52558 34.285714,489.50506 30.165001,485.00974 25.171275,481.30854 20,478.07649 c -2.553911,-1.59619 -5.714286,-3.80952 -8.571429,-2.85714 -1.8070154,0.60234 -0.183474,3.81838 0,5.71428 2.67458,27.63733 2.753553,55.70706 8.571429,82.85715 3.974461,18.54748 36.149462,106.41287 45.714286,131.42857 5.714285,14.28571 11.428571,28.57143 17.142857,42.85714 1.904762,6.66667 3.279793,13.50802 5.714286,20 0.472917,1.26111 3.28306,4.1349 2.857142,2.85714 -1.34687,-4.04061 -3.522957,-7.77635 -5.714285,-11.42857 -9.245226,-15.40871 -18.737638,-30.67437 -28.571429,-45.71428 -6.361933,-9.73002 -13.435385,-18.977 -20,-28.57143 C 31.325723,666.71738 26.280981,657.67034 20,649.50506 17.680444,646.48964 5.7142857,637.62525 5.7142857,632.3622 c 0,-0.95238 2.064714,-0.52828 2.8571429,0 13.6334614,9.08898 26.5999294,19.14175 40.0000004,28.57143 23.315215,16.40701 45.843222,32.92161 71.428571,45.71429 7.27809,3.63904 15.57906,4.93239 22.85714,8.57143 2.40936,1.20467 3.47296,4.22007 5.71429,5.71428 0.79243,0.52829 2.925,0.94996 2.85714,0 -0.9596,-13.43447 -1.89798,-27.08327 -5.71428,-40 C 137.09163,651.74927 126.949,622.89096 114.28571,595.21935 99.020315,561.86162 57.497426,494.71471 37.142857,458.07649 28.246164,442.06244 20.517546,425.41077 11.428571,409.50506 9.0660051,405.37057 5.3071226,402.15979 2.8571429,398.07649 c -0.489996,-0.81666 -0.8518355,-3.28306 0,-2.85714 4.2591771,2.12959 7.7101481,5.59669 11.4285711,8.57143 10.569744,8.45579 20.717836,17.4378 31.428572,25.71428 52.181268,40.32189 10.228844,6.81923 60.000004,40 5.07402,3.38268 9.6556,7.45991 14.28571,11.42857 2.04524,1.75307 3.47296,4.22007 5.71429,5.71429 0.79242,0.52828 3.06374,0.9297 2.85714,0 C 117.2398,435.65559 71.196749,389.17021 45.714286,352.3622 27.816617,326.51002 9.7044429,300.80557 -8.5714286,275.21935 c -44.3002034,-62.02029 -18.6361334,-21.66433 -54.2857144,-80 -2.895762,-4.73852 -6.508989,-9.12962 -8.571428,-14.28572 -0.353706,-0.88426 2.071136,-0.53779 2.857142,0 17.452186,11.94097 34.404629,24.5989 51.428572,37.14286 190.615517,140.45354 -50.821902,-35.93029 100,74.28571 95.563497,69.83487 -5.248501,-2.54661 45.714287,31.42858 1.12066,0.74711 1.65246,2.2548 2.85714,2.85714 0.85184,0.42592 3.42857,0.7619 2.85714,0 -11.7803,-15.70707 -23.51431,-31.58098 -37.142853,-45.71429 -4.893104,-5.07433 -61.39013,-52.47117 -71.428571,-60 -38.768369,-29.07627 -14.628421,-6.05699 -34.2857146,-25.71428 -0.9523809,-0.95238 -4.1778574,-2.593 -2.8571424,-2.85715 29.490145,-5.89802 34.516535,15.76963 60,37.14286 71.335101,59.82944 19.41355,14.95941 82.857141,65.71429 6.85643,5.48514 13.39199,11.36084 20,17.14285 1.01362,0.88692 3.45948,1.65247 2.85714,2.85715 -3.21558,6.43117 -19.22872,0.0771 -20,0 -4.73827,-0.47383 -9.52381,0 -14.28571,0 -0.95238,0 -2.72246,-0.94281 -2.85714,0 -0.94281,6.59966 0,13.33333 0,20 0,7.61905 -0.6898,15.26938 0,22.85714 3.45948,10.37844 2.85714,5.55974 2.85714,14.28571 0,0.95239 0,3.80953 0,2.85715 0,-3.80953 1.28128,-7.84099 0,-11.42857 C 104.52974,320.47405 109.35302,349.30725 88.571429,312.3622 84.582101,305.27007 83.639043,296.78315 80,289.50506 c -1.204677,-2.40935 -3.472958,-4.22007 -5.714286,-5.71428 -1.884667,-1.25645 -5.463757,1.10344 -5.714285,2.85714 -1.756104,12.29272 -1.621553,24.78695 -2.857143,37.14286 C 64.092163,340.01201 61.942322,356.17619 60,372.3622 c -0.914838,7.62365 -1.689596,15.26809 -2.857143,22.85715 -0.738421,4.79974 -2.170371,9.47831 -2.857143,14.28571 -0.269374,1.88562 -1.703671,6.56612 0,5.71429 3.071337,-1.53567 3.809524,-5.71429 5.714286,-8.57143 9.52381,-14.28572 19.047619,-28.57143 28.571429,-42.85714 5.714285,-8.57143 11.683031,-16.97857 17.142861,-25.71429 4.06951,-6.51122 7.99471,-13.13228 11.42857,-20 1.34687,-2.69374 4.98673,-6.44184 2.85714,-8.57143 -2.12959,-2.12959 -6.22851,0.96479 -8.57143,2.85714 -22.58215,18.23943 -43.991197,37.88831 -65.714284,57.14286 -56.251703,49.85947 -46.01948596,45.52412 -94.285715,80 -8.382736,5.98767 -16.816002,11.95219 -25.714285,17.14286 -2.601437,1.5175 -7.385065,5.62532 -8.571429,2.85714 -3.00129,-7.00301 -0.292824,-15.24372 0,-22.85714 0.792141,-20.59567 1.432767,-60.25138 8.571429,-82.85714 2.565143,-8.12296 8.152281,-14.99405 11.428571,-22.85715 1.510295,-3.6247 1.398778,-7.78266 2.857143,-11.42857 4.204013,-10.51003 2.857143,7.40779 2.857143,-8.57143 0,-6.66666 0.942809,-13.40033 0,-20 -4.696445,-16.43755 -6.754614,-20.79152 -8.571429,-37.14285 -0.315518,-2.83967 0,-5.71429 0,-8.57143 0,-1.90476 -1.549968,-6.82141 0,-5.71429 25.182898,17.98779 77.049202,99.86646 77.142857,100 C 111.14987,491.70025 84.954255,445.73072 140,546.64792 c 12.44773,22.82084 24.24575,46.0015 37.14286,68.57143 6.16082,10.78143 12.93182,21.21897 20,31.42857 1.5333,2.21477 4.22006,7.95561 5.71428,5.71428 4.35636,-6.53453 4.20315,-15.15036 5.71429,-22.85714 8.01504,-40.87672 14.52779,-82.0433 22.85714,-122.85714 50.99564,-249.87862 14.24532,-68.40984 60,-251.42857 6.38877,-25.55507 11.62354,-51.38602 17.14286,-77.14286 5.46272,-25.49269 2.67605,-39.05935 17.14286,-57.14286 0.59494,-0.74368 2.60655,-0.91882 2.85714,0 5.65352,20.72959 9.5793,41.89223 14.28571,62.85715 25.38952,113.09875 7.95738,44.90739 42.85715,165.71428 9.86418,34.14524 12.50349,58.21778 40,85.71429 6.38876,6.38876 17.02684,6.0893 25.71428,8.57143 5.41661,1.5476 22.70513,5.057 28.57143,2.85714 3.78334,-1.41875 5.71429,-5.71429 8.57143,-8.57143 1.90476,-1.90476 4.50961,-8.12364 5.71428,-5.71429 2.55551,5.11102 0.84178,11.49092 0,17.14286 -5.83538,39.18047 -11.05835,78.5526 -20,117.14286 -36.4597,157.35242 -29.43865,67.95208 -51.42857,197.14286 -3.05314,17.93722 -3.84201,36.18708 -5.71428,54.28571 -0.98488,9.5205 -1.9906,19.03943 -2.85715,28.57143 -0.0862,0.94847 -0.85183,3.28306 0,2.85714 8.0362,-4.0181 17.00995,-7.46399 22.85715,-14.28571 21.36688,-24.92804 33.20655,-58.38126 51.42857,-85.71429 0.74711,-1.12066 2.7084,-4.19577 2.85714,-2.85714 1.05173,9.46556 1.37904,19.14799 0,28.57143 -4.35436,29.75479 -11.51607,59.03082 -17.14286,88.57143 -13.44145,70.56763 -18.13532,89.10663 -25.71428,154.28572 -2.32047,19.956 -4.94215,39.9243 -5.71429,60 -0.18664,4.8526 -1.83917,13.0498 2.85715,14.2857 16.57842,4.3627 35.87467,7.2079 51.42857,0 42.66968,-19.7738 63.5248,-54.9534 94.28571,-85.7143 6.20877,-6.2087 13.43736,-11.30938 20,-17.14284 2.01333,-1.78962 3.47296,-4.22007 5.71429,-5.71428 0.79243,-0.52829 3.00196,-0.94131 2.85714,0 -8.00856,52.05562 -9.3768,30.14822 -34.28571,85.71432 -4.92781,10.9928 -6.6,23.2489 -11.42858,34.2857 -1.90866,4.3626 -6.44184,7.1694 -8.57142,11.4285 -0.85184,1.7037 -1.29966,7.1068 0,5.7143 35.83397,-38.3935 71.7655,-93.0786 100,-134.28568 15.52739,-22.66161 30.76488,-45.52444 45.71428,-68.57143 7.91116,-12.19637 15.1523,-24.81511 22.85714,-37.14286 1.81995,-2.9119 6.80017,-5.31378 5.71429,-8.57143 -0.90351,-2.71052 -6.45731,-1.92192 -8.57143,0 -19.44015,17.67287 -35.70818,38.56533 -54.28571,57.14286 -10.96273,10.96273 -23.32299,20.46585 -34.28572,31.42857 -11.91428,11.91429 -22.37143,25.22858 -34.28571,37.14286 -6.20877,6.20881 -13.14357,22.62801 -20,17.14281 -7.58413,-6.0673 1.67625,-19.73818 5.71428,-28.57138 11.34553,-24.81834 26.89286,-47.49379 40,-71.42857 8.79909,-16.06789 17.5216,-32.18605 25.71429,-48.57143 6.09821,-12.19643 11.8513,-24.57542 17.14286,-37.14286 2.33741,-5.55136 4.05953,-11.35123 5.71428,-17.14286 0.26164,-0.91573 0.76191,-3.42857 0,-2.85714 -34.17383,25.63037 -49.78393,53.4791 -77.14285,91.42857 -12.04876,16.71279 -23.1162,34.11582 -34.28572,51.42857 -7.88115,12.21579 -15.79712,24.43483 -22.85714,37.14286 -2.49073,4.48332 -4.09244,9.42018 -5.71429,14.28574 -0.30117,0.9035 -0.42591,3.709 0,2.8571 45.68071,-91.36139 -111.87216,176.8843 74.28572,-114.2857 47.01731,-73.5399 39.99316,-61.24779 60,-125.71428 3.83949,-12.37169 8.88812,-24.44063 11.42857,-37.14286 1.30744,-6.5372 5.67772,-16.50602 0,-20 -10.57549,-6.50799 -24.74676,-3.58632 -37.14286,-2.85714 -20.16819,1.18636 -41.5012,0.45 -60,8.57143 -21.80105,9.57119 -38.76356,27.72125 -57.14286,42.85714 -18.58742,15.30729 -39.27436,36.41722 -57.14285,54.28571 -1.90476,1.90477 -4.86245,3.15878 -5.71429,5.71429 -0.42592,1.27775 1.89066,3.79521 2.85714,2.85714 32.38096,-31.42857 63.62731,-64.03178 94.28572,-97.14285 40.78502,-44.04782 81.71188,-88.05101 120,-134.28572 12.29976,-14.85254 19.85802,-33.14403 31.42857,-48.57143 14.19399,-18.92532 31.63319,-35.27624 45.71429,-54.28571 5.07035,-6.84499 7.34954,-15.37892 11.42857,-22.85714 1.64431,-3.01457 2.9672,-6.51112 5.71428,-8.57143 1.52381,-1.14286 5.11195,-1.80702 5.71429,0 1.80701,5.42104 0,11.42857 0,17.14285 0,98.85242 2.76914,27.24256 -5.71429,105.71429 -2.26128,20.91691 -4.26677,41.86822 -5.71428,62.85714 -0.45868,6.65087 -2.10819,13.67545 0,20 5.0587,15.17611 17.07175,18.24723 31.42857,17.14286 6.00564,-0.46197 13.73043,-0.75076 17.14286,-5.71429 8.021,-11.66691 11.78447,-26.06453 14.28571,-40 7.41532,-41.31394 9.29978,-144.356 -2.85714,-177.14285 C 817.26568,401.61121 782.27527,354.78746 751.42857,306.64792 677.52535,191.31411 670.77416,177.34059 588.57143,103.79078 574.64213,91.327719 538.60084,58.189035 514.28571,49.505062 c -4.48448,-1.601602 -9.52381,0 -14.28571,0 -24.8713,0 -3.6978,-3.120884 -31.42857,28.571428 -16.93235,19.351258 -75.98798,73.7247 -91.42857,88.57143 -18.72285,18.00273 -21.0646,22.9413 -40,37.14286 -1.86439,1.39829 -7.30003,4.12855 -8.57143,2.85714 -0.67344,-0.67344 0,-1.90476 0,-2.85714 0,-42.62572 -3.90564,-26.28347 11.42857,-65.71429 2.62887,-6.75994 6.48726,-13.05277 8.57143,-20 0.82099,-2.73665 1.58486,-6.19414 0,-8.57143 -1.05657,-1.58486 -3.80953,0 -5.71429,0 -9.52381,0 -19.0584,-0.453 -28.57143,0 -10.50748,0.50036 -21.0379,1.21651 -31.42857,2.85714 -28.39916,4.48408 -16.35142,6.12743 -42.85714,11.42858 -2.80166,0.56033 -5.71429,0 -8.57143,0 -0.95238,0 -2.67036,0.93388 -2.85714,0 -0.93389,-4.66944 0,-9.52381 0,-14.28572 0,-8.57143 0,-17.142855 0,-25.714284 0,-0.952381 0.85183,-2.431225 0,-2.857143 -1.70367,-0.851835 -3.9308,-0.668806 -5.71429,0 -5.98198,2.243246 -11.32674,5.927739 -17.14285,8.571429 -49.05037,22.295618 6.2865,-6.095765 -20,11.428568 -3.63637,2.42425 -3.03031,-1.471858 -2.85715,-2.85714 0.8353,-6.682346 1.08522,-13.502942 2.85715,-20 1.12066,-4.1091 4.03651,-7.51377 5.71428,-11.428571 1.18637,-2.768183 3.80953,-5.714286 2.85714,-8.571429 -0.60233,-1.807015 -4.06048,-0.945026 -5.71428,0 -11.9257,6.814684 -22.60696,15.627435 -34.28572,22.857143 -7.7667,4.807959 -39.00497,21.728257 -48.57142,25.714287 -3.62471,1.51029 -8.651932,5.63379 -11.428576,2.85714 -3.367175,-3.36717 -1.154931,-9.665986 0,-14.285712 C 97.937929,80.610491 102.41167,66.103194 108.57143,52.362205 131.25888,1.7517283 128.26559,28.619767 140,-10.494938 c 1.14695,-3.823155 -0.54556,-9.788054 -2.85714,-8.571429 C 119.36441,-9.7092888 101.67333,0.15822943 85.714286,12.362205 58.945477,32.83247 38.19738,60.463368 11.428571,80.933633 5.3292213,85.597842 -2.7415977,87.365207 -8.5714286,92.362205 c -1.4462034,1.239602 -1.9047614,5.714285 0,5.714285 2.1295886,0 1.454799,-4.111607 2.8571429,-5.714285 5.32152083,-6.081738 11.1857521,-11.682178 17.1428567,-17.142857 5.483198,-5.026265 12.244681,-8.687799 17.142858,-14.285715 1.983213,-2.26653 1.186556,-6.065548 2.857142,-8.571428 0.528286,-0.792429 2.857143,-0.952381 2.857143,0 0,1.34687 -1.736479,2.110033 -2.857143,2.857143 -4.620614,3.080409 -9.318703,6.087922 -14.285714,8.571428 -2.69374,1.34687 -6.065548,1.186556 -8.5714284,2.857143 -0.7924289,0.528286 0,3.809524 0,2.857143 0,-4.761905 -0.9977576,-9.629512 0,-14.285714 C 15.878588,21.119271 23.93431,19.954391 54.285714,-7.6377953 62.320586,-14.942224 71.461516,-20.928986 80,-27.637795 c 4.795137,-3.767608 9.11444,-8.196525 14.285714,-11.428572 6.017046,-3.76065 10.554466,-2.857143 17.142856,-2.857143 2.85714,0 6.75512,-2.205515 8.57143,0 12.25913,14.886092 20.61304,32.6056426 31.42857,48.571429 9.18971,13.565764 19.48246,26.366539 28.57143,40 9.96768,14.951518 18.60375,30.762768 28.57143,45.714286 7.18546,10.778195 15.38691,20.845745 22.85714,31.428575 2.38107,3.37317 10.70717,18.56668 17.14286,22.85714 0.79243,0.52828 1.90476,0 2.85714,0 0.95238,0 1.90476,0 2.85714,0 0.95239,0 2.18371,0.67343 2.85715,0 0.6214,-0.6214 -0.63542,-7.5124 0,-8.57143 5.30011,-8.83353 10.50724,-17.8345 17.14285,-25.71429 8.67568,-10.30236 19.04762,-19.047614 28.57143,-28.571424 6.66667,-6.666667 13.33334,-13.333333 20,-20 4.76191,-4.761905 8.575,-10.716516 14.28572,-14.285714 2.42285,-1.514283 5.79959,0.692959 8.57143,0 1.30665,-0.326664 1.51027,-2.857143 2.85714,-2.857143 0.95238,0 0,1.904762 0,2.857143 0,18.095238 2.34042,36.342469 0,54.285718 -15.07065,115.54161 -11.01547,38.62297 -37.14286,125.71428 -3.5995,11.99832 -2.67613,24.99026 -5.71428,37.14286 -1.46378,5.85509 -9.04183,9.7648 -5.71429,11.42857 1.70367,0.85184 3.83544,0.31314 5.71429,0 3.87334,-0.64556 7.84024,-1.26233 11.42857,-2.85714 5.07466,-2.25541 9.18143,-6.38388 14.28571,-8.57143 1.75075,-0.75032 3.80953,0 5.71429,0 7.24321,0 6.50279,-0.88426 8.57143,14.28571 3.69602,27.10422 2.85714,63.82352 2.85714,91.42857 0,19.04762 0,38.09524 0,57.14286"
       id="path14556"
       inkscape:connector-curvature="0" />
  </g>
</svg>
